<svg width="68" height="22" viewBox="0 0 68 22" fill="none" xmlns="http://www.w3.org/2000/svg">
  <path d="M13.4549 5.86111V17.5619H8.85583V16.5993C8.15706 17.3837 7.08752 17.7758 5.6472 17.7758C4.62043 17.7758 3.6721 17.5334 2.80221 17.0485C1.94657 16.5494 1.26206 15.8364 0.748682 14.9095C0.249561 13.9825 0 12.913 0 11.7008C0 10.4887 0.249561 9.42626 0.748682 8.51358C1.26206 7.58664 1.94657 6.88074 2.80221 6.39588C3.6721 5.89676 4.62043 5.6472 5.6472 5.6472C6.94491 5.6472 7.93602 5.98232 8.62053 6.65257V5.86111H13.4549ZM6.80231 14.011C7.35847 14.011 7.81481 13.8114 8.17132 13.4121C8.52784 12.9985 8.7061 12.4281 8.7061 11.7008C8.7061 10.9735 8.52784 10.4102 8.17132 10.0109C7.81481 9.61165 7.35847 9.412 6.80231 9.412C6.24614 9.412 5.7898 9.61165 5.43329 10.0109C5.07677 10.4102 4.89852 10.9735 4.89852 11.7008C4.89852 12.4281 5.07677 12.9985 5.43329 13.4121C5.7898 13.8114 6.24614 14.011 6.80231 14.011Z" fill="#F59D33"/>
  <path d="M23.1919 5.6472C24.2187 5.6472 25.1599 5.89676 26.0155 6.39588C26.8854 6.88074 27.5699 7.58664 28.069 8.51358C28.5824 9.42626 28.8391 10.4887 28.8391 11.7008C28.8391 12.913 28.5824 13.9825 28.069 14.9095C27.5699 15.8364 26.8854 16.5494 26.0155 17.0485C25.1599 17.5334 24.2187 17.7758 23.1919 17.7758C21.7516 17.7758 20.682 17.3837 19.9833 16.5993V17.5619H15.3842V1.68988H20.2186V6.65257C20.9031 5.98232 21.8942 5.6472 23.1919 5.6472ZM22.0368 14.011C22.593 14.011 23.0493 13.8114 23.4058 13.4121C23.7623 12.9985 23.9406 12.4281 23.9406 11.7008C23.9406 10.9735 23.7623 10.4102 23.4058 10.0109C23.0493 9.61165 22.593 9.412 22.0368 9.412C21.4806 9.412 21.0243 9.61165 20.6678 10.0109C20.3113 10.4102 20.133 10.9735 20.133 11.7008C20.133 12.4281 20.3113 12.9985 20.6678 13.4121C21.0243 13.8114 21.4806 14.011 22.0368 14.011Z" fill="#F59D33"/>
  <path d="M30.1481 5.86111H34.9825V17.5619H30.1481V5.86111ZM32.5653 4.91991C31.6954 4.91991 30.9895 4.69174 30.4476 4.2354C29.92 3.7648 29.6561 3.17298 29.6561 2.45995C29.6561 1.74692 29.92 1.16224 30.4476 0.705899C30.9895 0.2353 31.6954 0 32.5653 0C33.4495 0 34.1554 0.22104 34.683 0.663118C35.2106 1.1052 35.4745 1.67562 35.4745 2.37439C35.4745 3.11594 35.2106 3.72915 34.683 4.21401C34.1554 4.68461 33.4495 4.91991 32.5653 4.91991Z" fill="#F59D33"/>
  <path d="M44.9543 17.1555C44.227 17.5691 43.2359 17.7758 41.981 17.7758C40.341 17.7758 39.0789 17.3837 38.1948 16.5993C37.3106 15.8007 36.8686 14.61 36.8686 13.0271V3.23003H41.7029V6.50283H44.0987V10.0323H41.7029V12.9843C41.7029 13.3408 41.7956 13.6189 41.981 13.8185C42.1664 14.0182 42.4088 14.118 42.7083 14.118C43.1218 14.118 43.4855 14.011 43.7992 13.7971L44.9543 17.1555Z" fill="#F59D33"/>
  <path d="M50.85 17.7758C49.3099 17.7758 48.1048 17.3908 47.2349 16.6207C46.3793 15.8364 45.9515 14.7098 45.9515 13.241V1.68988H50.7858V12.9843C50.7858 13.3551 50.8785 13.6403 51.0639 13.8399C51.2493 14.0253 51.5131 14.118 51.8554 14.118C52.0122 14.118 52.1691 14.0966 52.326 14.0538C52.4971 14.011 52.6326 13.9611 52.7324 13.9041L52.9249 17.4764C52.2404 17.676 51.5488 17.7758 50.85 17.7758Z" fill="#F59D33"/>
  <path d="M68 5.86111L66.139 15.2089C65.6827 17.5334 64.7771 19.2304 63.4223 20.3C62.0819 21.3838 60.3207 21.9257 58.1388 21.9257C55.743 21.9257 53.8107 21.4408 52.3419 20.4711L54.3954 17.1769C54.866 17.5334 55.4435 17.8115 56.128 18.0111C56.8268 18.225 57.5256 18.332 58.2244 18.332C59.1228 18.332 59.793 18.1395 60.2351 17.7544C60.6772 17.3837 60.9695 16.8204 61.1121 16.0646L61.1549 15.8507C60.6843 16.2072 60.1781 16.4781 59.6362 16.6635C59.1085 16.8346 58.5809 16.9202 58.0532 16.9202C56.7983 16.9202 55.7929 16.5779 55.0371 15.8934C54.2813 15.2089 53.9034 14.2249 53.9034 12.9415C53.9034 12.4566 53.9533 11.9646 54.0531 11.4655L55.1655 5.86111H59.9998L58.9944 10.888C58.9374 11.2302 58.9089 11.4727 58.9089 11.6153C58.9089 12.4424 59.301 12.8559 60.0854 12.8559C61.1977 12.8559 61.9036 12.1144 62.2031 10.6313L63.1657 5.86111H68Z" fill="#F59D33"/>
</svg>