<svg width="30" height="30" viewBox="0 0 30 30" fill="none" xmlns="http://www.w3.org/2000/svg">
<path d="M14.134 1.5C14.5189 0.833332 15.4811 0.833333 15.866 1.5L27.1244 21C27.5093 21.6667 27.0281 22.5 26.2583 22.5H3.74167C2.97187 22.5 2.49074 21.6667 2.87564 21L14.134 1.5Z" fill="#FF4255"/>
<path d="M16.1894 14.35C16.1442 14.8827 16.0677 15.2785 15.9623 15.5397C15.8556 15.8 15.6662 15.9299 15.3928 15.9299C15.3416 15.9299 15.2959 15.9208 15.2506 15.9103C15.2041 15.9208 15.1586 15.9299 15.1071 15.9299C14.8344 15.9299 14.6444 15.8 14.5383 15.5397C14.4323 15.2785 14.3571 14.8827 14.311 14.35L14.0682 10.2375C14.023 9.43588 14 8.86073 14 8.51159C14 8.0364 14.1095 7.66559 14.3292 7.39938C14.5496 7.13316 14.8392 7.00037 15.198 7.00037C15.2171 7.00037 15.2314 7.00521 15.2502 7.00605C15.268 7.00521 15.2827 7.00037 15.3013 7.00037C15.6608 7.00037 15.9498 7.13316 16.1699 7.39938C16.3898 7.66601 16.5 8.03703 16.5 8.5118C16.5 8.86094 16.4775 9.43609 16.4316 10.2377L16.1894 14.35Z" fill="white"/>
<path d="M15.2415 17.4326C15.5898 17.4326 15.8857 17.557 16.1314 17.8057C16.377 18.0547 16.5 18.3569 16.5 18.7117C16.5 19.1122 16.3755 19.4275 16.1283 19.6564C15.8799 19.8854 15.5903 19.9999 15.2593 19.9999C14.9223 19.9999 14.6284 19.8871 14.3771 19.6608C14.1262 19.4352 14.0007 19.1183 14.0007 18.7121C14.0007 18.3573 14.1208 18.0551 14.361 17.8062C14.6011 17.557 14.8946 17.4326 15.242 17.4326" fill="white"/>
</svg>
