<svg width="80" height="84" viewBox="0 0 80 84" fill="none" xmlns="http://www.w3.org/2000/svg">
  <path d="M45.0307 7.7257C48.7301 10.7671 50.9262 15.2505 53.2327 19.3416C55.4454 23.2663 56.5015 25.983 56.3579 30.5428C56.1907 35.8479 54.9888 41.1565 53.416 46.2086C50.8812 54.3508 46.8306 61.3706 42.0078 68.3586C40.067 71.1707 37.8946 74.1637 35.5427 76.6436C34.5862 77.6522 33.9626 78.533 33.8638 76.5462C33.6585 72.4223 33.0099 68.3297 31.8097 64.3641C31.6339 63.7832 29.337 58.4353 30.3483 60.229C31.8661 62.9211 33.6226 65.6138 34.4422 68.622C34.859 70.1516 34.8176 71.8598 35.6123 73.2693C35.7884 73.5817 37.4649 75.5304 37.6897 75.4622C44.0583 73.529 49.7193 68.932 56.1778 67.1557" stroke="#F59D33" stroke-width="3.69302" stroke-linecap="round"/>
</svg>