<svg width="366" height="335" viewBox="0 0 366 335" fill="none" xmlns="http://www.w3.org/2000/svg">
<path d="M214.063 103.687C215.181 101.882 216.592 101.631 218.22 100.447C219.571 99.4649 221.954 99.9694 223.578 99.9694C225.486 99.9694 226.983 101.735 228.238 102.99" stroke="#FBD8AD" stroke-width="2" stroke-linecap="round"/>
<path d="M246.364 103.223C249.317 101.398 252.886 99.9694 256.433 99.9694C258.246 99.9694 259.769 101.255 260.771 102.758" stroke="#FBD8AD" stroke-width="2" stroke-linecap="round"/>
<path d="M243.807 98.1104C243.818 98.5434 243.681 99.7776 244.298 99.9178C245.304 100.147 246.471 99.8972 247.396 99.5047C248.406 99.0761 249.454 98.6643 250.417 98.2266C252.12 97.4526 254.217 97.8611 256.007 97.5295C257.292 97.2916 258.654 97.4133 259.958 97.4133C260.993 97.4133 262.739 97.233 263.585 97.7619C264.293 98.2044 265.03 97.9164 265.754 98.1233C266.013 98.1972 265.192 97.4567 264.941 97.31C264.225 96.8927 263.325 97.2681 262.746 96.4967C262.48 96.142 261.245 96.0492 260.822 96.019C259.993 95.9598 259.286 95.3466 258.447 95.3219C256.729 95.2714 255.002 95.3219 253.283 95.3219C252.451 95.3219 251.392 95.3708 250.598 95.6059C249.745 95.8587 248.871 96.048 248.042 96.3031C246.622 96.74 245.702 98.1104 244.04 98.1104" stroke="#FBD8AD" stroke-width="2" stroke-linecap="round"/>
<path d="M231.956 98.1104C228.506 99.3941 225.178 98.1974 221.874 97.1809C219.362 96.408 218.058 96.5122 215.509 97.3616C214.679 97.6386 213.924 97.9171 213.134 98.2911C212.781 98.4582 210.59 99.9974 211.185 98.8075C211.704 97.769 212.953 97.6289 213.831 97.0647C214.139 96.8667 214.24 96.4554 214.528 96.303C214.831 96.1427 215.223 96.1881 215.561 96.019C218.324 94.6376 221.004 94.3924 224.107 94.3924C225.809 94.3924 227.579 94.7284 229.039 95.6575C229.649 96.0457 231.196 96.8229 231.492 97.4133" stroke="#FBD8AD" stroke-width="2" stroke-linecap="round"/>
<path d="M231.724 116.003C230.711 116.423 230.281 117.112 229.4 117.578C228.854 117.868 229.275 118.739 229.052 119.14C228.045 120.953 229.819 121.764 230.911 122.613C231.268 122.891 232.04 122.742 232.473 122.742C232.842 122.742 234.583 123.099 234.719 123.336C235.227 124.225 235.765 125.066 236.849 125.066C237.542 125.066 238.235 125.066 238.928 125.066C239.681 125.066 240.012 124.507 240.554 124.188C241.848 123.427 242.5 123.207 244.04 123.207C246.049 123.207 246.828 121.675 246.828 119.902C246.828 118.738 246.583 116.7 244.969 116.7" stroke="#FBD8AD" stroke-width="2" stroke-linecap="round"/>
<path d="M224.753 135.755C226.17 135.755 227.338 136.22 228.703 136.22C229.631 136.22 230.564 136.193 231.492 136.22C231.869 136.231 232.481 136.36 232.705 136.685C232.983 137.089 233.542 136.817 233.932 137.033C234.511 137.355 235.541 137.149 236.191 137.149C237.529 137.149 238.867 137.149 240.206 137.149C241.651 137.149 242.795 136.797 244.195 136.504C245.65 136.199 247.134 136.314 248.558 135.871C249.13 135.694 251.23 135.318 251.476 134.826" stroke="#FBD8AD" stroke-width="2" stroke-linecap="round"/>
<path d="M233.351 143.191C235.815 144.153 239.18 143.878 241.484 142.726" stroke="#FBD8AD" stroke-width="2" stroke-linecap="round"/>
<path d="M220.338 127.854C222.038 125.621 223.369 123.587 225.682 122.045" stroke="#FBD8AD" stroke-width="2" stroke-linecap="round"/>
<path d="M248.92 120.883C249.949 122.102 251.133 122.759 251.928 124.24C252.307 124.946 252.62 125.708 252.87 126.46" stroke="#FBD8AD" stroke-width="2" stroke-linecap="round"/>
<path d="M199.889 98.5752C199.889 97.5894 200.067 96.5121 199.501 95.6447C198.803 94.5746 197.506 93.1458 196.3 92.6883C195.07 92.2219 193.319 92.5334 192.014 92.5334C190.63 92.5334 190.133 93.1391 189.78 94.3924C189.105 96.7946 188.661 100.496 189.535 102.913C190.147 104.605 190.594 106.512 191.342 108.103C192.09 109.692 193.184 111.353 193.589 113.073C193.938 114.558 194.171 116.056 194.918 117.385C195.569 118.542 197.483 118.911 198.675 119.308C199.822 119.691 201.239 119.489 202.445 119.489" stroke="#FBD8AD" stroke-width="2" stroke-linecap="round"/>
<path d="M275.411 93.4629C276.252 92.5054 278.772 90.6744 280.161 90.6744C281.491 90.6744 281.927 92.4447 282.408 93.3725C283.343 95.1771 283.192 97.2537 283.066 99.2723C282.997 100.371 282.478 101.427 282.279 102.513C282.061 103.692 282.089 104.94 281.788 106.102C281.538 107.065 281.31 108.032 281.039 108.98C280.556 110.673 280.719 112.509 280.471 114.248C280.218 116.019 277.299 118.807 275.411 117.862" stroke="#FBD8AD" stroke-width="2" stroke-linecap="round"/>
<path d="M201.748 112.982C202.097 114.119 202.352 115.319 202.548 116.494C202.729 117.58 202.501 118.766 203.013 119.773C203.96 121.638 204.589 123.845 205.233 125.84C206.103 128.536 207.787 131.004 208.822 133.638C209.475 135.299 210.773 136.447 211.52 137.989C212.317 139.633 213.525 140.853 214.631 142.262C216.225 144.29 217.507 146.561 219.047 148.717C219.966 150.004 221.788 150.834 222.61 152.254C223.336 153.509 225.165 154.164 226.263 155.042C226.881 155.537 227.925 155.631 228.69 155.727C229.499 155.828 230.365 156.204 231.156 156.204C232.199 156.204 233.206 156.669 234.28 156.669C235.167 156.669 236.053 156.669 236.94 156.669C239.269 156.669 241.404 155.25 243.575 154.629C244.165 154.461 244.452 153.991 245.086 153.88C245.696 153.774 246.253 153.513 246.777 153.183C247.879 152.489 249.099 151.694 250.314 151.221C252.307 150.446 254.34 148.624 255.775 147.038C256.69 146.027 258.51 145.411 259.157 144.224C259.822 143.006 261.146 141.904 262.036 140.816C264.219 138.148 266.168 135.604 267.742 132.502C268.414 131.179 269.477 129.82 270.298 128.552C271.42 126.818 272.21 124.862 272.738 122.871C273.098 121.515 273.7 119.698 274.365 118.443C275.151 116.957 275.22 114.754 275.527 113.099C275.792 111.668 275.8 110.113 275.888 108.658C275.959 107.496 276.572 106.704 276.572 105.546" stroke="#FBD8AD" stroke-width="2" stroke-linecap="round"/>
<path d="M199.191 95.3219C199.805 92.5009 201.354 90.0854 201.825 87.1887C202.297 84.2861 202.346 81.4412 203.039 78.5909C203.724 75.7671 202.955 72.6008 203.516 69.7348C203.891 67.8202 204.708 66.0064 205.904 64.4676C206.531 63.6621 207.278 62.4027 208.138 61.8598C210.463 60.391 212.959 59.8254 215.69 59.3037C216.364 59.175 219.344 58.5591 219.873 59.2262C220.82 60.4202 221.131 62.8271 222.429 63.6672C223.006 64.0406 223.396 64.7076 224.004 65.1131C224.741 65.6043 226.117 65.8995 226.973 66.133C229.307 66.7694 231.912 66.9195 234.319 67.3207C236.262 67.6444 238.251 68.2697 240.219 68.3534C242.398 68.4462 244.596 68.3663 246.777 68.3663C248.335 68.3663 249.697 67.1251 250.65 65.9909C251.653 64.7968 253.702 64.2912 255.091 63.7705C255.972 63.4401 256.727 62.745 257.518 62.2084C258.987 61.2112 263.698 59.7716 264.747 62.0018C265.491 63.5831 266.914 65.1571 267.277 66.8817C267.55 68.1766 267.836 69.3816 268.026 70.6901C268.833 76.2365 269.44 82.2429 272.144 87.2017C272.591 88.0207 272.551 89.058 272.983 89.8611C273.201 90.2651 273.606 90.6478 273.784 91.0488C274.164 91.9032 274.713 94.6302 274.713 93.6953" stroke="#FBD8AD" stroke-width="2" stroke-linecap="round"/>
<path d="M262.549 140.279C262.549 142.037 262.534 143.796 262.549 145.553C262.571 148.208 263.408 150.211 264.049 152.707C264.914 156.071 265.432 159.817 265.883 163.255C266.232 165.91 266.789 169.345 268.596 171.379C268.84 171.653 270.199 173.232 270.491 173.273C271.077 173.357 272.105 173.577 272.37 174.107" stroke="#FBD8AD" stroke-width="2" stroke-linecap="round"/>
<path d="M211.262 138.369C211.912 143.501 212.899 148.598 212.899 153.783C212.899 155.691 212.716 157.492 212.414 159.375C212.153 160.999 211.415 162.548 211.247 164.149C210.87 167.732 204.468 170.015 201.441 170.015" stroke="#FBD8AD" stroke-width="2" stroke-linecap="round"/>
<path d="M220.036 100.146C219.893 100.899 219.684 102.257 220.036 102.962C220.395 103.679 222.019 103.891 222.754 103.891C224.726 103.891 224.904 101.948 224.904 100.396" stroke="#FBD8AD" stroke-width="2" stroke-linecap="round"/>
<path d="M251.364 101.145C251.441 103.43 253.09 103.896 255.08 103.461C255.885 103.285 256.346 102.772 256.654 102.019C256.741 101.806 256.961 101.135 256.731 101.02" stroke="#FBD8AD" stroke-width="2" stroke-linecap="round"/>
<path d="M251.613 106.262C252.704 106.262 253.89 106.399 254.955 106.137C255.268 106.06 255.827 106.072 255.982 105.763" stroke="#FBD8AD" stroke-width="2" stroke-linecap="round"/>
<path d="M218.788 106.012C220.291 106.435 221.647 106.512 223.198 106.512C223.761 106.512 223.929 106.296 224.404 106.137" stroke="#FBD8AD" stroke-width="2" stroke-linecap="round"/>
<path d="M190.291 155.13C187.864 154.001 183.701 150.972 182.136 148.537C181.49 147.532 180.359 146.668 179.553 145.761C178.828 144.946 178.465 143.893 177.953 142.946C176.818 140.851 174.793 139.182 173.287 137.355C171.031 134.619 168.367 132.294 166.077 129.605C164.665 127.948 163.494 126.007 161.855 124.574C161.049 123.869 160.836 122.624 160.178 121.778C159.441 120.831 159.022 120.226 158.558 119.079C157.024 115.286 155.87 111.807 155.069 107.801C154.532 105.117 153.772 102.393 153.353 99.7044C152.815 96.2424 153.161 92.5386 153.161 89.0435C153.161 86.6401 153.161 84.2367 153.161 81.8334C153.161 78.9845 152.639 75.5891 153.546 72.8689C154.465 70.1131 155.464 67.2147 155.956 64.3478C156.411 61.6902 157.873 59.3972 158.867 56.9257C159.768 54.6859 161.183 52.8353 162.337 50.7373C163.295 48.995 164.106 47.2828 165.306 45.6671C168.106 41.8981 171.334 38.5175 174.29 34.8904C177.493 30.9597 181.674 28.3231 185.934 25.6175C188.314 24.1057 190.406 21.9291 192.913 20.6437C194.782 19.6853 196.873 18.8435 198.831 18.0604C202.029 16.7813 205.418 16.1588 208.682 15.0915C211.521 14.1635 214.566 13.292 217.454 12.5468C222.856 11.1528 228.039 11.1768 233.59 11.1202C239.954 11.0552 245.929 10.6539 252.232 11.4672C254.217 11.7233 255.635 12.5378 257.418 13.3372C260.211 14.5893 263.11 15.5275 266.016 16.4796C271.672 18.3322 276.36 21.1937 280.514 25.3476C282.632 27.4656 285.071 29.9853 287.473 31.7866C290.272 33.8856 291.907 37.2646 294.047 39.9992C295.024 41.2479 296.703 42.7489 297.363 44.1634C298.119 45.7843 299.763 47.1338 300.293 48.7902C301.256 51.7999 303.871 54.3494 304.457 57.4269C304.694 58.6669 305.495 59.5454 306 60.6271C306.628 61.9738 306.982 64.0043 307.311 65.4853C307.807 67.7176 307.896 71.3166 309.142 73.2545C310.728 75.7222 311.392 80.073 312.072 82.7394C312.909 86.0152 313.827 88.8197 313.827 92.1666C313.827 94.8704 312.837 97.4099 312.786 100.109C312.699 104.699 310.786 108.889 310.01 113.354C309.383 116.956 306.83 119.726 305.923 123.128C305.541 124.559 304.814 125.888 304.38 127.369C303.945 128.855 302.824 130.433 302.183 131.899C300.989 134.629 299.053 137.871 296.495 139.63C294.196 141.211 292.573 143.918 290.577 145.915C288.68 147.812 286.508 149.758 284.331 151.313C283.435 151.952 282.856 152.856 282.037 153.549C281.12 154.325 279.785 154.714 278.933 155.477" stroke="#FBD8AD" stroke-width="2" stroke-linecap="round"/>
<path d="M183.697 155.824C182.422 157.362 181.046 158.615 179.013 158.928C177.536 159.155 177.191 158.455 176.063 157.829C174.542 156.984 175.369 152.139 175.369 150.619C175.369 149.116 175.529 148.884 173.981 148.884C172.321 148.884 170.985 149.762 169.335 149.905C167.86 150.034 166.941 150.553 165.576 149.578C163.943 148.411 162.414 145.472 161.913 143.524C160.995 139.954 164.318 138.023 165.576 135.35C165.721 135.043 163.594 135.591 163.378 135.62C162.473 135.74 161.551 135.697 160.641 135.697C159.567 135.697 158.06 134.489 157.498 133.615C156.781 132.5 155.711 131.745 154.973 130.569C154.05 129.1 153.16 127.418 153.16 125.653C153.16 123.883 153.58 122.845 154.549 121.393C155.231 120.369 154.894 120.337 153.855 120.968C152.663 121.692 151.531 122.023 150.114 121.74C148.997 121.516 147.586 119.267 147.069 118.327C146.416 117.141 145.927 115.794 145.873 114.452C145.839 113.586 145.621 112.411 146.413 111.908C147.155 111.436 148.1 110.79 148.996 110.712C149.811 110.642 150.794 110.795 151.348 110.018C151.824 109.353 149.518 108.944 149.151 108.765C147.591 108.006 146.375 106.862 144.986 105.854C143.974 105.12 142.75 103.759 142.75 102.558C142.75 100.599 143.928 99.5994 145.603 98.914C146.069 98.7237 148.826 97.7685 148.341 97.526C146.264 96.4876 144.361 96.1008 142.943 94.0751C142.063 92.8175 142.025 91.3445 141.632 89.8917C141.307 88.688 140.719 88.0491 141.362 86.9228C141.91 85.9636 143.872 85.2199 144.832 84.6865C145.373 84.3859 147.333 84.2476 147.531 83.5684C147.547 83.513 145.172 81.5117 144.832 80.8694C143.168 77.7263 140.884 74.0987 144.119 70.8639C145.345 69.6376 149.217 69.9828 150.924 69.4952C151.483 69.3355 149.157 67.0998 148.823 66.4684C147.209 63.421 147.402 60.0783 147.608 56.5786C147.638 56.0707 154.182 56.9256 155.165 56.9256C157.583 56.9256 155.59 51.8412 155.59 50.1396C155.59 48.282 155.18 46.104 156.284 44.5103C156.625 44.0175 157.357 42.6982 157.864 42.6982C158.443 42.6982 163.969 44.1274 163.417 43.3151C162.547 42.0364 161.489 42.0762 161.489 40.2884C161.489 39.0688 161.61 36.9769 162.954 36.5291C163.853 36.2293 165.357 36.4 166.231 36.6448C166.582 36.743 170.802 38.3567 169.47 36.6255C167.379 33.9071 168.031 27.3707 170.01 24.8271C171.084 23.4461 174.211 24.8894 175.446 25.4247C176.75 25.9896 178.145 28.0438 178.145 26.1188C178.145 22.9391 177.47 19.4294 179.88 17.0193C181.611 15.2891 186.331 16.5138 187.669 18.2339C187.964 18.613 189.545 19.9566 189.597 18.8701C189.687 16.9676 189.442 14.2927 190.136 12.5082C191.002 10.2814 191.413 10.7731 194.031 10.7731C196.297 10.7731 198.282 10.4217 200.2 11.7371C200.629 12.0314 202.271 13.7172 202.61 13.4914C203.882 12.6434 202.96 9.0693 203.67 7.65004C204.061 6.86704 204.404 5.61114 205.289 5.56798C206.954 5.48677 207.458 4.90937 209.029 5.91499C210.045 6.56483 210.511 7.1727 211.266 8.03561C211.305 8.0801 212.063 10.487 212.23 10.1177C213.234 7.88624 212.104 5.81266 214.427 4.33416C215.334 3.7572 216.055 3.84342 217.126 3.83292C218.753 3.81697 220.776 3.21536 222.37 3.50519C223.211 3.65802 224.599 4.98087 224.992 5.7222C226.277 8.15056 227.306 4.68015 228.443 3.54374C230.14 1.84642 235.001 1.56972 236.096 4.06426C236.24 4.39208 237.537 7.64653 237.851 7.07169C238.52 5.84488 239.827 2.59468 241.34 2.36776C243.221 2.08556 246.153 1.09804 247.702 2.4256C248.033 2.70953 248.619 2.62951 248.858 2.869C249.156 3.16671 249.216 4.75782 249.263 5.18241C249.359 6.04442 249.577 6.76124 249.63 7.65004C249.799 10.5328 251.252 7.58836 252.039 6.84035C253.409 5.53931 254.909 4.80738 256.84 4.87395C259.295 4.95861 261.841 5.74583 264.281 6.06921C265.55 6.23738 267.962 5.983 268.445 7.38015C268.894 8.67666 269.409 9.86564 269.409 11.3129C269.409 12.2706 269.12 13.8264 269.486 14.7059C269.769 15.3847 271.49 13.7397 271.684 13.5492C273.07 12.1907 273.879 12.0782 275.925 12.1805C277.288 12.2486 277.907 12.4822 278.779 13.4721C279.508 14.3 281.333 14.7166 281.516 15.8626C281.804 17.6623 280.321 19.7184 282.634 19.1014C285.77 18.2652 286.596 19.7989 289.305 20.9907C291.754 22.0686 288.241 28.5014 290.346 28.2008C293.55 27.7431 296.129 28.2404 296.129 31.8252C296.129 32.3762 295.796 36.4864 296.534 36.3941C297.607 36.26 298.37 35.7311 299.522 35.758C300.544 35.7817 300.834 36.5104 301.681 36.9339C302.029 37.1076 302.927 36.9869 303.069 37.3773C303.325 38.08 303.225 38.9047 303.494 39.5751C303.741 40.1928 303.848 40.8081 303.744 41.4836C303.721 41.6322 303.245 42.7294 303.301 42.7753C304.829 44.0256 308.33 42.9315 310.183 43.9127C311.726 44.7293 313.929 45.6083 314.347 47.3636C314.664 48.693 314.441 50.0731 314.097 51.3735C313.889 52.1571 313.515 52.1284 312.94 52.4916C312.333 52.8751 312.129 54.0463 311.899 54.6701C311.315 56.2547 311.263 55.5392 312.94 55.8075C314.423 56.0447 315.139 56.2231 316.179 57.3498C316.993 58.2321 316.774 61.4385 315.909 62.1308C315.341 62.5849 315.069 63.3555 314.501 63.8659C314.037 64.2842 313.533 64.6569 313.056 65.0611C312.591 65.4552 311.117 66.1379 311.706 66.2949C313.535 66.7828 316.033 65.3371 317.143 67.3553C318.22 69.3143 318.66 70.7421 318.164 73.0231C317.962 73.9519 316.603 74.8489 316.603 75.6642C316.603 76.651 317.789 77.5087 318.415 78.0933C319.736 79.3276 320.801 80.7114 321.962 82.084C322.936 83.2342 322.754 86.0734 321.654 87.0385C320.985 87.6257 317.068 88.4228 317.104 88.735C317.344 90.813 322.572 89.4146 323.697 91.6653C324.355 92.9801 324.489 95.1578 323.813 96.4849C323.304 97.483 322.484 98.8128 321.538 99.4538C320.581 100.102 319.019 99.8439 318.241 100.861C317.535 101.785 318.435 103.199 318.762 104.081C319.471 105.99 320.128 108.066 320.555 110.057C321.252 113.311 319.762 115.201 316.68 116.11C315.495 116.46 313.247 116.147 315.755 117.46C317.393 118.318 318.986 120.279 319.032 122.241C319.108 125.494 315.455 125.246 312.863 125.287C311.443 125.309 309.786 124.872 311.07 126.54C312.125 127.912 313.173 130.008 313.133 131.803C313.071 134.586 308.391 134.619 306.385 134.984C305.009 135.234 307.692 139.041 307.889 140.073C308.46 143.07 307.827 145.242 304.92 146.377C303.308 147.007 301.023 147.28 299.946 145.934C298.732 144.416 299.787 148.748 299.869 149.231C300.117 150.688 300.444 153.597 298.751 154.359C298.071 154.665 296.843 154.446 296.129 154.436C295.268 154.423 293.208 153.563 292.505 153.819C291.72 154.104 291.145 159.57 290.538 160.682C289.505 162.576 282.943 164.244 282.943 160.682" stroke="#FBD8AD" stroke-width="2" stroke-linecap="round"/>
<path d="M163.571 78.4404C165.208 76.4626 165.898 74.6232 168.583 74.6232C170.179 74.6232 172.328 74.716 172.612 76.7053C172.858 78.4227 173.12 79.0994 171.918 80.6766C171.216 81.5988 168.006 82.7084 169.162 82.7973C172.126 83.0253 173.866 81.384 176.063 84.0696C177.468 85.7861 178.455 87.2002 178.126 89.5062C178.045 90.0738 176.365 90.8442 175.948 91.087C174.2 92.1031 172.301 92.7257 170.338 93.1691C167.21 93.8752 165.755 92.188 163.918 89.8917" stroke="#FBD8AD" stroke-width="2" stroke-linecap="round"/>
<path d="M227.074 18.4074C227.074 21.7747 227.074 25.142 227.074 28.5093C227.074 29.8262 227.174 31.1872 227.055 32.4999C227.054 32.5057 226.727 28.72 226.727 27.6032C226.727 26.1372 226.307 25.1339 227.922 25.8682C229.795 26.7196 233.445 25.8881 235.248 25.2705C237.939 24.3488 237.831 21.8407 237.831 19.3135C237.831 14.2734 236.443 29.3298 236.443 34.3699" stroke="#FBD8AD" stroke-width="2" stroke-linecap="round"/>
<path d="M294.741 74.6232C290.867 76.793 290.021 81.1985 290.616 85.3613C291.291 90.0865 298.37 90.8943 301.527 88.4266C304.362 86.2106 304.931 74.5898 299.927 74.2955C297.608 74.1591 294.197 73.9768 293.006 76.3583" stroke="#FBD8AD" stroke-width="2" stroke-linecap="round"/>
<path d="M140.668 188.963C140.668 188.855 140.667 188.746 140.664 188.634C140.637 189.334 140.475 190.07 140.475 190.718C140.475 191.306 140.668 189.552 140.668 188.963Z" fill="#C4C4C4"/>
<path d="M151.773 170.051C151.269 173.69 149.535 175.692 146.645 177.686C144.611 179.088 142.853 180.118 141.69 182.04M140.664 188.634C140.631 187.126 140.404 185.352 140.842 183.951C141.07 183.22 141.355 182.593 141.69 182.04M140.664 188.634C140.667 188.746 140.668 188.855 140.668 188.963C140.668 189.552 140.475 191.306 140.475 190.718C140.475 190.07 140.637 189.334 140.664 188.634ZM140.664 188.634C140.667 188.57 140.668 188.506 140.668 188.443M140.668 188.443C143.844 190.602 148.768 193.628 149.016 197.832C149.142 199.984 150.862 201.513 151.927 203.287C152.719 204.608 153.903 205.815 154.471 207.259C154.723 207.898 154.678 208.193 155.243 208.57M140.668 188.443C144.415 189.235 151.618 189.911 150.462 186.284C149.305 182.656 144.132 181.943 141.69 182.04M150.038 170.398C147.994 170.398 146.434 170.754 145 171.449M141.69 173.695C141.034 174.242 136.944 176.325 136.138 176.471M141.69 173.695C142.831 172.744 143.877 171.993 145 171.449M141.69 173.695C141.69 172.051 132 145.749 130 148.249C124.5 150.249 135.5 174.749 136.138 176.471M136.138 176.471C134.945 176.688 136.548 175.48 136.138 176.471ZM136.138 176.471C134.662 180.038 135.375 184.269 133.381 187.672C132.29 189.533 133.22 192.929 134.075 194.689C136.907 200.521 139.179 206.153 140.34 212.541C140.711 214.576 140.668 216.604 140.668 218.71C140.668 220.868 140.034 223.263 139.203 225.226C138.98 225.754 138.933 226.179 138.933 226.749V223.491M154.549 171.786C153.977 172.375 153.417 173.245 152.736 173.714C152.492 173.883 152.042 173.754 151.85 173.946C151.242 174.553 151.14 175.835 150.462 176.567C149.475 177.633 149.376 179.212 150.384 180.115C153.191 182.625 156.631 182.234 156.631 178.033M156.631 180.809C157.194 184.375 158.486 188.337 160.101 191.566M153.508 172.48C156.648 170.101 158.119 170.674 159.6 174.293C160.428 176.318 160.712 178.577 161.759 180.462C162.193 181.244 162.947 182.421 163.571 183.045C164.501 183.975 164.704 185.35 165.383 186.284C165.921 187.023 166.37 188.092 166.771 188.983C167.162 189.852 167.824 190.239 168.159 190.872C170.596 195.474 169.817 201.224 169.817 206.295C169.817 209.429 169.182 211.828 168.352 214.816C167.739 217.022 165.966 219.047 164.959 221.062C164.959 226.564 164.907 232.23 163.918 237.641C162.644 244.61 160.407 252.113 158.79 259.002C157.589 264.118 157.318 269.463 155.86 274.502C155.429 275.987 154.365 277.46 154.202 279.013C154.081 280.161 150.632 285.586 149.941 284.434M149.625 169.823C149.625 168.314 149.666 167.257 149.625 165.749C149.625 161.198 149.208 147.595 146.645 143.749C144.644 140.749 143.444 145.598 143.444 147.168C143.296 154.828 143.4 170.408 145 171.449" stroke="#FBD8AD" stroke-width="2" stroke-linecap="round"/>
<path d="M137.892 226.267C138.312 230.748 139.448 234.953 140.09 239.376C140.619 243.019 140.886 246.195 141.979 249.71C142.674 251.943 143.292 254.173 143.791 256.457C144.321 258.883 145.773 260.922 146.355 263.34C147.385 267.616 148.174 272.028 148.919 276.352C149.392 279.094 149.448 281.889 149.845 284.642C150.366 288.262 151.079 291.97 151.079 295.631C151.079 299.127 150.037 302.015 150.037 305.501C150.037 308.755 151.365 311.747 152.621 314.716C153.889 317.715 155.547 320.245 157.325 322.813C158.719 324.827 159.536 324.794 161.836 325.512C165.45 326.642 167.621 324.124 168.892 320.847C171.274 314.703 171.205 307.74 171.205 301.26C171.205 296.563 170.858 291.898 170.858 287.206C170.858 282.147 171.205 277.126 171.205 272.073C171.205 268.718 171.205 265.364 171.205 262.009C171.205 259.4 170.723 257.386 170.203 254.915C169.537 251.754 168.727 248.433 167.658 245.353C167.046 243.591 167.148 240.91 165.846 239.608C165.321 239.083 164.265 237.117 164.265 236.331" stroke="#FBD8AD" stroke-width="2" stroke-linecap="round"/>
<path d="M137.892 225.226C136.29 227.405 134.335 228.833 132.166 230.431C131.203 231.141 128.712 231.566 128.099 232.513C127.758 233.04 127.002 233.285 126.826 233.901C126.463 235.174 125.943 236.307 125.4 237.545C123.674 241.475 123.897 245.633 123.163 249.825C122.847 251.631 122.891 253.513 122.701 255.339C122.325 258.943 121.322 262.348 121.236 266.019C121.139 270.132 120.278 274.371 119.809 278.473C119.37 282.311 116.324 285.281 112.753 285.876C111.407 286.1 109.956 286.902 108.666 286.994C107.46 287.08 107.772 286.576 108.049 285.606" stroke="#FBD8AD" stroke-width="2" stroke-linecap="round"/>
<path d="M117.071 251.946C116.809 255.976 113.999 259.959 112.483 263.629C111.261 266.588 108.743 270.358 108.743 273.673C108.743 275.446 108.743 277.22 108.743 278.994C108.743 281.078 108.743 280.348 108.743 278.666" stroke="#FBD8AD" stroke-width="2" stroke-linecap="round"/>
<path d="M121.929 241.883C117.145 242.727 110.566 243.598 107.779 248.206C106.775 249.867 106.452 252.141 105.948 253.989C105.783 254.593 104.707 256.449 104.155 256.804C102.803 257.673 100.812 257.338 99.4123 258.038C98.1729 258.658 98.1503 262.787 98.0628 263.86C97.7663 267.492 98.595 270.636 98.9881 274.174C99.3011 276.991 99.0778 280.043 98.6797 282.83" stroke="#FBD8AD" stroke-width="2" stroke-linecap="round"/>
<path d="M136.504 203.711C135.655 205.739 134.368 207.469 133.4 209.437C132.232 211.812 131.383 214.477 129.911 216.686C125.357 223.516 118.223 228.25 113.89 235.212C111.142 239.63 108.5 243.977 106.044 248.553C105.016 250.468 104.353 252.592 103.307 254.491C102.849 255.32 102.015 257.196 101.109 257.498" stroke="#FBD8AD" stroke-width="2" stroke-linecap="round"/>
<path d="M213.193 221.062C229.035 218.914 245.007 219.626 260.927 218.556C266.15 218.205 270.776 218.791 275.945 219.308C277.226 219.436 278.857 219.49 280.012 220.098C280.706 220.463 282.221 221.793 282.249 222.527C282.783 236.427 282.249 250.618 282.249 264.631C282.249 274.475 281.902 284.3 281.902 294.146C281.902 296.875 281.961 299.612 281.902 302.34C281.859 304.284 281.208 306.234 281.208 308.162" stroke="#FBD8AD" stroke-width="2" stroke-linecap="round"/>
<path d="M281.555 222.45C283.578 222.1 285.55 221.732 287.435 220.908C288.185 220.58 288.735 220.368 289.555 220.368C291.381 220.368 293.183 220.269 294.973 219.944C298.481 219.306 302.426 219.327 305.981 219.327C310.048 219.327 314.116 219.327 318.184 219.327C326.332 219.327 334.48 219.327 342.629 219.327C343.77 219.327 344.017 219.32 344.017 220.58C344.017 223.279 344.017 225.978 344.017 228.677C344.017 238.232 345.355 247.7 345.405 257.228C345.458 267.316 345.752 277.389 345.752 287.476C345.752 292.645 345.966 297.875 345.598 303.034C345.215 308.392 345.453 313.87 344.788 319.189C344.582 320.839 344.578 322.623 344.383 324.182C344.256 325.202 344.399 326.088 344.094 327.093C343.807 328.041 339.202 327.247 338.272 327.247C332.899 327.247 327.461 327.526 322.136 326.727C317.194 325.986 312.486 325.859 307.504 325.859C305.736 325.859 303.969 325.859 302.202 325.859C301.201 325.859 300.956 326.348 300.12 326.534C298.733 326.842 295.335 328.312 294.394 326.9" stroke="#FBD8AD" stroke-width="2" stroke-linecap="round"/>
<path d="M293.353 319.266C303.378 319.266 313.403 319.266 323.428 319.266C324.879 319.266 327.391 319.752 328.748 319.073C329.479 318.708 330.233 318.058 330.908 317.608C331.671 317.1 332.89 317.732 333.607 316.837C335.025 315.064 336.706 318.928 337.539 319.845C338.47 320.869 341.597 322.519 341.916 323.951C342.196 325.214 342.81 326.398 343.323 327.594" stroke="#FBD8AD" stroke-width="2" stroke-linecap="round"/>
<path d="M334.647 316.49C335.054 312.674 336.095 308.613 335.419 304.807C334.436 299.28 334.647 293.321 334.647 287.727C334.647 276.43 334.647 265.132 334.647 253.835C334.647 246.54 333.495 238.034 336.035 231.048C337.383 227.342 338.118 222.909 338.118 218.98" stroke="#FBD8AD" stroke-width="2" stroke-linecap="round"/>
<path d="M220.481 220.368C220.481 226.691 220.481 233.015 220.481 239.338C220.481 242.605 220.552 245.835 220.828 249.093C221.112 252.448 220.829 256.037 221.56 259.33C223.548 268.276 222.869 277.67 221.715 286.744C220.553 295.866 221.175 304.72 221.175 313.791C221.175 315.417 221.827 316.829 221.869 318.418C221.892 319.31 221.945 320.376 222.389 321.175C223.14 322.527 227.411 321.695 228.732 321.695C232.472 321.695 235.923 321.968 239.605 322.582C242.831 323.12 246.44 323.43 249.707 323.43C251.895 323.43 259.277 324.299 257.958 321.001" stroke="#FBD8AD" stroke-width="2" stroke-linecap="round"/>
<path d="M222.563 320.307C221.817 324.556 217.341 328.999 214.235 332.106" stroke="#FBD8AD" stroke-width="2" stroke-linecap="round"/>
<path d="M212.846 221.756C212.846 235.762 213.193 249.768 213.193 263.764C213.193 274.974 212.499 286.176 212.499 297.404C212.499 303.773 212.152 310.147 212.152 316.49C212.152 319.288 212.863 321.359 213.733 323.97C214.477 326.203 214.097 328.385 214.235 330.718C214.273 331.364 215.111 332.361 215.623 332.106C218.223 330.805 221.584 331.412 224.529 331.412C230.713 331.412 237.576 330.556 243.692 331.566C247.257 332.155 250.932 333.841 254.565 333.841C256.278 333.841 257.717 333.147 259.423 333.147C260.947 333.147 262.767 332.721 264.204 332.106" stroke="#FBD8AD" stroke-width="2" stroke-linecap="round"/>
<path d="M258.652 320.307C259.537 322.346 260.306 324.419 261.274 326.418C261.732 327.366 262.275 329.32 263.163 329.946C264.008 330.543 264.074 332.106 265.245 332.106" stroke="#FBD8AD" stroke-width="2" stroke-linecap="round"/>
<path d="M257.611 320.654C257.64 319.241 258.149 316.708 260.194 317.261C262.341 317.841 263.381 319.292 264.628 320.731C265.327 321.538 266.565 322.762 266.903 323.777C267.05 324.218 267.247 324.821 267.674 325.088C268.619 325.679 268.096 327.297 269.062 327.941" stroke="#FBD8AD" stroke-width="2" stroke-linecap="round"/>
<path d="M269.062 328.983C269.94 324.693 271.093 321.231 272.899 317.319C273.252 316.554 277.53 313.335 277.738 315.102C278.09 318.095 278.085 321.175 278.085 324.259C278.085 325.053 278.035 328.132 277.911 327.71C277.331 325.739 277.641 323.122 277.41 321.04C277.157 318.767 277.203 315.467 278.432 313.444C279.694 311.365 281.728 311.285 283.964 311.285C286.949 311.285 287.034 318.717 287.377 320.731C287.933 323.997 287.454 327.731 287.454 331.065" stroke="#FBD8AD" stroke-width="2" stroke-linecap="round"/>
<path d="M287.107 316.143C288.52 308.9 291.814 319.087 292.332 321.676C292.659 323.314 293.7 325.081 293.7 326.746C293.7 327.611 293.263 330.325 294.047 330.718" stroke="#FBD8AD" stroke-width="2" stroke-linecap="round"/>
<path d="M202.099 170.34C203.644 173.532 204.941 178.64 207.978 180.833C208.961 181.544 209.803 182.482 210.802 183.215C212.098 184.164 213.169 185.415 214.941 185.415C216.597 185.415 218.285 186.103 219.9 186.4C223.949 187.146 228.161 187.742 232.282 187.78C235.046 187.805 237.772 188.075 240.558 188.075C244.835 188.075 249.167 187.781 253.35 186.877C257.567 185.965 263.068 185.206 266.652 182.476C267.337 181.953 268.138 181.67 268.901 181.277C269.82 180.804 270.329 179.926 270.97 179.142C271.901 178.005 274.198 176.641 274.517 175.365" stroke="#FBD8AD" stroke-width="2" stroke-linecap="round"/>
<path d="M280.429 161.768C280.373 164.846 279.482 167.346 277.752 169.897C275.507 173.208 273.493 176.407 271.529 179.897C267.258 187.483 261.395 193.629 256.388 200.654C253.497 204.71 250.247 209.55 248.506 214.251C248.229 214.997 247.442 215.885 247.34 216.648C247.233 217.448 247.323 218.303 247.323 219.112" stroke="#FBD8AD" stroke-width="2" stroke-linecap="round"/>
<path d="M282.794 161.768C284.764 161.768 287.189 161.374 289.132 161.834C290.551 162.17 291.473 163.187 292.647 163.985C293.972 164.886 293.435 167.513 293.435 168.862" stroke="#FBD8AD" stroke-width="2" stroke-linecap="round"/>
<path d="M290.183 171.227C288.189 177.946 283.918 183.767 281.611 190.407C279.691 195.938 278.304 200.71 273.631 204.431C271.27 206.31 268.556 207.835 266.028 209.472C263.898 210.852 262.019 212.543 259.902 213.939C257.977 215.209 255.817 216.655 254.418 218.521" stroke="#FBD8AD" stroke-width="2" stroke-linecap="round"/>
<path d="M293.73 165.906C295.491 165.48 300.49 164.413 301.563 166.678C301.977 167.551 302.832 168.316 303.123 169.224C303.387 170.042 303.188 171.104 303.337 171.966C303.602 173.505 304.291 174.325 305.784 174.84C306.798 175.189 307.581 175.221 308.625 175.382C309.593 175.53 310.753 176.97 311.334 177.664C312.287 178.802 312.955 180.239 314.142 181.129C315.699 182.297 317.958 181.974 319.857 182.607C322.45 183.471 324.399 186.359 326.524 188.059C328.402 189.561 330.742 190.282 332.912 191.212C335.873 192.481 337.965 194.96 340.63 196.647C341.884 197.441 342.854 198.655 344.013 199.603C344.797 200.244 345.929 200.406 346.574 201.212C349.676 205.089 352.706 209.646 353.127 214.694C353.343 217.289 353.219 220.169 354.095 222.659C355.87 227.697 355.022 233.503 356.165 238.752C356.759 241.484 357.693 243.206 359.515 245.123C360.768 246.442 361.401 248.943 362.29 250.526C362.523 250.942 364.179 253.4 364.08 253.4" stroke="#FBD8AD" stroke-width="2" stroke-linecap="round"/>
<path d="M297.573 175.956C299.54 183.668 305.182 190.145 305.258 198.322C305.305 203.382 304.963 208.433 304.963 213.496" stroke="#FBD8AD" stroke-width="2" stroke-linecap="round"/>
<path d="M317.082 186.006C317.082 192.438 318.177 200.195 315.899 206.27C314.916 208.892 313.596 211.598 312.352 214.087" stroke="#FBD8AD" stroke-width="2" stroke-linecap="round"/>
<path d="M329.792 194.578C329.792 200.133 330.112 205.602 328.905 211.032C328.686 212.018 327.935 216.987 326.245 215.86" stroke="#FBD8AD" stroke-width="2" stroke-linecap="round"/>
<path d="M295.8 191.327C295.8 194.62 295.79 197.744 294.01 200.638C292.389 203.271 290.82 205.938 288.574 208.077C286.678 209.882 284.972 211.861 282.991 213.578C282.612 213.906 282.103 214.087 281.611 214.087" stroke="#FBD8AD" stroke-width="2" stroke-linecap="round"/>
<path d="M215.4 185.415C215.4 193.302 215.105 201.173 215.105 209.062" stroke="#FBD8AD" stroke-width="2" stroke-linecap="round"/>
<path d="M231.657 187.78C231.462 193.461 230.426 199.107 230.245 204.825C230.119 208.796 230.18 212.774 230.18 216.747" stroke="#FBD8AD" stroke-width="2" stroke-linecap="round"/>
<path d="M238.16 188.962C238.16 193.254 237.854 197.357 237.011 201.574C236.559 203.832 236.387 206.17 236.387 208.471" stroke="#FBD8AD" stroke-width="2" stroke-linecap="round"/>
<path d="M242.594 190.736C242.957 192.661 243.185 194.491 243.185 196.45C243.185 197.302 243.113 197.98 243.481 198.716" stroke="#FBD8AD" stroke-width="2" stroke-linecap="round"/>
<path d="M191.754 194.283C188.993 202.257 185.85 210.497 180.521 217.158C177.16 221.359 174.475 225.659 171.785 230.311C170.408 232.694 168.63 234.562 166.957 236.699C166.246 237.608 165.788 238.683 165.151 239.638C164.306 240.906 164.421 241.462 164.855 239.507" stroke="#FBD8AD" stroke-width="2" stroke-linecap="round"/>
<path d="M185.842 189.849C183.156 194.516 180.407 199.104 177.566 203.676C176.338 205.65 174.885 207.486 174.019 209.653" stroke="#FBD8AD" stroke-width="2" stroke-linecap="round"/>
<path d="M208.417 46.6231C205.081 47.9919 202.013 49.2243 199.006 51.1157C197.629 51.9823 196.915 54.1688 196.229 55.5123C195.762 56.4256 195.366 58.049 194.53 58.7098C192.413 60.3824 190.843 63.5028 189.449 65.7764C187.583 68.8193 188.008 72.6061 187.603 75.9766C187.463 77.1337 187.305 78.036 187.014 79.1422C186.712 80.293 185.83 81.0457 185.479 82.1639C184.703 84.6323 184.596 87.6441 184.596 90.2057C184.596 92.0852 184.869 93.9316 184.891 95.8014C184.91 97.4333 185.289 98.4766 185.495 99.9902C185.824 102.406 185.836 104.803 186.296 107.185C186.516 108.327 186.897 109.422 186.949 110.574C187.006 111.834 187.898 112.669 188.109 113.804C188.443 115.6 189.373 117.331 189.302 119.207C189.187 122.248 187.483 123.461 189.008 126.61C190.519 129.733 191.53 133.296 194.007 135.835C195.083 136.938 195.477 139.079 195.477 140.567C195.477 143.203 195.183 145.868 195.183 148.529C195.183 149.621 196.27 153.41 195.003 154.237C194.146 154.796 193.137 155.243 192.226 155.723C191.294 156.215 190.483 157.262 189.53 157.642C188.349 158.113 187.346 158.944 186.132 159.369C184.962 159.778 183.748 159.777 182.848 160.712C182.077 161.513 181.214 162.161 180.479 163.03C179.642 164.02 179.231 165.259 178.29 166.179C176.294 168.133 172.452 168.623 169.876 169.809C167.155 171.062 165.849 172.206 164.959 175.037C164.777 175.616 164.893 176.387 164.893 176.987C164.893 178.453 164.21 181.78 164.942 183.094C165.115 183.404 167.834 182.263 168.275 182.023C169.103 181.573 169.621 180.507 170.35 179.865C172.544 177.933 172.808 181.547 173.879 182.023C176.575 183.222 179.372 178.506 181.133 177.275C181.551 176.982 183.549 175.403 184.008 176.028C184.751 177.038 184.302 179.406 184.302 180.568C184.302 185.415 186.366 188.976 191.001 191.024C192.306 191.601 193.582 194.406 194.742 194.526C196.989 194.757 198.946 191.761 198.647 189.745C198.37 187.88 197.73 186.175 197.47 184.31C197.34 183.373 196.654 182.896 196.654 181.895C196.654 180.078 201.167 180.751 202.176 180.728C204.069 180.685 203.898 176.374 203.695 175.085C203.434 173.427 202.451 172.012 203.123 170.368" stroke="#FBD8AD" stroke-width="2" stroke-linecap="round"/>
<path d="M208.791 46.776C210.259 45.8117 211.578 44.7808 212.925 43.6694C213.65 43.0714 214.6 42.7712 215.288 42.1641C216.361 41.2166 217.757 40.3691 219.192 40.1143C226.011 38.9043 233.113 38.2219 240.094 38.1286C241.769 38.1062 244.271 37.7186 245.771 38.4809C248.639 39.939 251.386 41.2113 254.138 42.8687C257.089 44.6459 260.691 45.051 263.654 46.712C264.81 47.3606 266.668 48.4818 267.329 49.6105C268.961 52.3995 271.073 54.5547 272.431 57.5533C273.25 59.3631 273.935 61.2702 274.941 62.982C275.954 64.7058 277.585 66.0276 278.829 67.5459C280.119 69.119 281.015 70.6269 282.029 72.3661C284.471 76.5565 285.645 81.3938 286.901 86.0258C287.621 88.6788 288.525 91.5102 288.525 94.1769C288.525 97.6886 288.734 100.862 288 104.362C287.636 106.1 287.382 107.899 287.344 109.678C287.296 111.922 286.312 114.02 286.179 116.228C286.083 117.832 285.317 118.69 284.818 120.151C284.485 121.126 283.871 122.331 283.144 123.098C282.183 124.111 281.874 124.73 281.29 125.996C280.932 126.774 280.337 128.554 279.666 128.991C278.607 129.68 278.137 131.394 277.533 132.386C276.711 133.736 275.84 135.273 275.548 136.838C275.131 139.078 275.982 141.192 276.139 143.339C276.224 144.502 276.432 146.53 277.008 147.487C277.936 149.026 277.61 151.338 278.419 153.012C279.472 155.189 280.543 161.211 283.505 161.211" stroke="#FBD8AD" stroke-width="2" stroke-linecap="round"/>
<path d="M271.857 173.592C274.128 179.335 276.938 190.154 284.928 185.054C285.902 184.432 286.772 183.654 287.753 183.05C288.179 182.788 288.939 184.941 289.297 185.349C291.498 187.865 296.226 186.835 298.755 185.579C300.474 184.726 302.079 183.623 303.649 182.525C304.653 181.822 305.877 182.605 306.867 183.034C308.177 183.6 311.788 184.87 312.549 182.952C313.332 180.98 314.02 178.534 313.37 176.4C313.017 175.24 311.761 175.73 311.761 174.774" stroke="#FBD8AD" stroke-width="2" stroke-linecap="round"/>
<path d="M59.3735 66.6252C62.8185 67.0142 66.3319 66.3192 69.7691 65.9755" stroke="#FBD8AD" stroke-width="2" stroke-linecap="round"/>
<path d="M78.2155 61.4274C80.6324 61.4274 82.9791 61.1026 85.3624 61.1026" stroke="#FBD8AD" stroke-width="2" stroke-linecap="round"/>
<path d="M26.8195 49.8173C30.5247 57.7978 35.3368 66.0871 40.6088 73.1165" stroke="#FBD8AD" stroke-width="2" stroke-linecap="round"/>
<path d="M41.5598 49.8173C38.722 54.0356 35.8569 58.2396 33.0009 62.4443C31.794 64.221 29.8923 65.8264 29.1969 67.9125C28.6858 69.4457 27.3879 70.7213 26.6081 72.1391C25.8384 73.5385 25.7386 75.0765 24.9175 76.445" stroke="#FBD8AD" stroke-width="2" stroke-linecap="round"/>
<path d="M47.3535 51.3567C47.4858 59.2608 47.6784 67.166 47.6784 75.0717" stroke="#FBD8AD" stroke-width="2" stroke-linecap="round"/>
<path d="M47.6784 50.3821C48.8697 50.3821 50.5715 50.0732 51.7211 50.4363C53.0804 50.8655 53.994 52.895 55.1141 53.7751C56.2775 54.6892 55.3789 59.0661 55.1141 60.2904C54.2077 64.4828 50.5859 65.3258 47.0287 65.3258" stroke="#FBD8AD" stroke-width="2" stroke-linecap="round"/>
<path d="M58.7237 77.6706C57.7639 69.7522 61.2144 61.7899 63.1274 54.2444C63.2664 53.696 63.2137 50.1004 64.5712 50.7792C65.7581 51.3726 66.622 53.0863 67.1881 54.1902C68.8061 57.3453 69.9307 60.7509 71.0684 64.0985C72.4585 68.1885 73.6673 72.3946 73.6673 76.696" stroke="#FBD8AD" stroke-width="2" stroke-linecap="round"/>
<path d="M76.916 50.0573C77.2363 52.2995 77.4742 54.5054 77.5657 56.7711C77.7134 60.4252 78.4957 63.9367 78.811 67.5637C78.9264 68.8906 79.1901 70.1807 79.1901 71.4982" stroke="#FBD8AD" stroke-width="2" stroke-linecap="round"/>
<path d="M86.6619 50.0573C86.7584 56.9098 88.2862 63.6737 88.2862 70.5236" stroke="#FBD8AD" stroke-width="2" stroke-linecap="round"/>
<path d="M96.0829 50.707C96.0829 56.1005 97.7129 60.9647 98.6998 66.2282C99.0089 67.8766 100.021 66.4754 100.505 65.7409C102.262 63.0728 104.347 60.6363 106.081 57.9623C106.991 56.5593 108.127 54.8384 108.68 53.2337C108.902 52.5904 108.908 51.8383 109.276 53.2517C110.676 58.6379 109.932 64.6411 111.676 69.8739" stroke="#FBD8AD" stroke-width="2" stroke-linecap="round"/>
<path d="M50.6489 90.0312C52.055 92.6676 50.8708 95.4222 51.4532 98.1887C51.7021 99.3712 52.4585 100.202 52.4585 101.406" stroke="#FBD8AD" stroke-width="2" stroke-linecap="round"/>
<path d="M44.186 92.8748C46.8113 91.9532 49.4178 91.4089 52.0563 90.7493C53.4785 90.3937 54.8538 89.7727 56.3361 89.7727" stroke="#FBD8AD" stroke-width="2" stroke-linecap="round"/>
<path d="M57.8872 97.5281C60.4303 96.5356 63.3678 96.7706 66.0446 96.0344C66.6479 95.8685 65.9089 95.1188 65.5133 94.9429C65.0029 94.7161 64.8311 93.951 64.4649 93.5498C64.0036 93.0447 63.5234 92.9745 62.9281 92.7456C61.6617 92.2585 60.3298 93.367 59.2946 93.9663C58.7209 94.2985 58.2827 95.9171 58.0021 96.494C57.474 97.5795 57.6286 98.9597 57.6286 100.128C57.6286 101.294 58.0036 103.902 59.4382 104.221C61.2329 104.619 63.6114 103.865 65.1255 102.957" stroke="#FBD8AD" stroke-width="2" stroke-linecap="round"/>
<path d="M76.5001 86.6705C77.1949 89.2758 77.6184 90.904 74.6762 91.6828C73.5618 91.9778 73.4622 91.9845 72.6799 92.6163C71.7763 93.3461 71.6826 94.8313 71.215 95.8334C70.6006 97.1499 71.0714 99.7328 71.0714 101.162C71.0714 102.45 71.5718 105.876 73.1538 106.073C74.7712 106.275 75.4783 106.528 76.5576 105.169C77.6922 103.74 77.8943 103.595 77.7927 101.664C77.6716 99.3641 76.1478 99.5961 74.2884 99.5961C73.4267 99.5961 72.565 99.5961 71.7033 99.5961C71.0821 99.5961 71.2198 99.9097 70.8129 100.113" stroke="#FBD8AD" stroke-width="2" stroke-linecap="round"/>
<path d="M81.6703 96.2355C82.7851 96.0835 91.2352 95.9276 91.2352 95.0435C91.2352 93.8709 91.002 92.5621 90.0001 91.8408C88.0294 90.4219 83.943 91.1057 82.7187 93.2482C82.2377 94.09 82.2134 95.7868 82.1873 96.7525C82.1283 98.9377 82.5879 100.233 83.9107 101.966C85.5152 104.068 86.6037 105.148 89.3682 104.709C90.2642 104.567 90.9687 104.057 91.4937 103.345C91.601 103.199 92.0108 102.389 92.0108 102.698" stroke="#FBD8AD" stroke-width="2" stroke-linecap="round"/>
<path d="M9 141.149C9.06234 137.409 9.72246 133.698 9.9024 129.959C10.2105 123.558 9.99085 116.955 11.7613 110.72C11.8651 110.355 14.2002 104.106 14.9197 105.414C16.0379 107.447 16.5179 109.807 17.1938 112.02C19.1659 118.477 20.2089 125.1 21.6696 131.674C22.2699 134.375 22.9691 136.414 22.9691 139.2" stroke="#FBD8AD" stroke-width="2" stroke-linecap="round"/>
<path d="M10.2996 127.83C11.9159 127.291 13.4936 126.758 15.1725 126.458C15.8125 126.344 16.6007 126.302 17.1217 125.88C18.3903 124.853 20.2393 125.686 21.3449 124.581" stroke="#FBD8AD" stroke-width="2" stroke-linecap="round"/>
<path d="M26.5426 119.383C28.0228 123.988 27.1872 128.714 28.4918 133.28C28.7435 134.161 29.1415 136.867 29.1415 135.951" stroke="#FBD8AD" stroke-width="2" stroke-linecap="round"/>
<path d="M25.568 121.332C28.044 118.526 34.1703 113.254 35.5665 119.816C36.0433 122.057 35.1487 123.156 33.2023 124.094C32.9907 124.195 30.7539 125.171 30.7658 125.267C30.8489 125.932 33.7383 126.591 34.3032 126.873C37.9431 128.693 37.942 135.3 34.7724 137.575C32.8871 138.929 29.8872 140.233 29.1415 137.251" stroke="#FBD8AD" stroke-width="2" stroke-linecap="round"/>
<path d="M41.4863 121.657C42.0701 127.057 41.4863 132.389 41.4863 137.792C41.4863 138.615 40.8365 139.925 40.8365 138.55" stroke="#FBD8AD" stroke-width="2" stroke-linecap="round"/>
<path d="M41.1613 122.957C44.6066 120.58 49.343 119.982 49.9145 125.411C50.1765 127.9 47.7445 130.741 45.8718 132.197C45.1961 132.723 42.6501 132.567 42.1358 132.053" stroke="#FBD8AD" stroke-width="2" stroke-linecap="round"/>
<path d="M49.9326 142.773C50.0352 140.003 51.2395 137.912 52.1525 135.355C52.968 133.072 53.7425 130.702 54.4085 128.371C54.5184 127.986 55.0252 123.746 56.0328 124.653C56.787 125.332 57.242 126.638 57.5849 127.541C58.7956 130.727 60.4745 133.653 61.4111 136.962C61.6314 137.74 62.7359 142.678 62.2774 142.448" stroke="#FBD8AD" stroke-width="2" stroke-linecap="round"/>
<path d="M51.2321 137.575C53.9815 136.917 57.1492 135.951 60.0033 135.951C60.6319 135.951 61.6652 136.201 61.9525 135.626" stroke="#FBD8AD" stroke-width="2" stroke-linecap="round"/>
<path d="M66.5006 138.225C65.6074 135.49 65.8508 132.585 65.8508 129.743C65.8508 126.983 65.5686 123.928 66.681 121.332C67.6133 119.157 69.5728 128.596 70.2365 129.039C70.818 129.426 73.3377 125.108 73.6114 124.635C74.1853 123.644 74.4688 121.998 74.8026 123.715C75.4068 126.822 75.2718 129.986 75.2718 133.136C75.2718 134.554 74.7685 136.983 75.5967 138.225" stroke="#FBD8AD" stroke-width="2" stroke-linecap="round"/>
<path d="M81.1194 129.129C83.4729 129.129 85.8419 129.207 88.1942 129.129C89.2914 129.092 87.9758 124.782 87.7791 124.148C87.4929 123.226 87.4615 122.632 86.4796 122.632C85.3015 122.632 84.2935 122.734 83.6461 123.895C81.941 126.952 81.1405 130.499 81.4623 134.038C81.6587 136.198 82.9369 137.641 85.0177 136.601" stroke="#FBD8AD" stroke-width="2" stroke-linecap="round"/>
<path d="M92.4896 122.632C92.4896 124.044 92.276 135.519 91.8398 135.301" stroke="#FBD8AD" stroke-width="2" stroke-linecap="round"/>
<path d="M92.8145 129.454C94.7007 129.43 96.6127 129.475 98.4093 128.822C98.9601 128.622 99.3792 128.479 99.9614 128.479" stroke="#FBD8AD" stroke-width="2" stroke-linecap="round"/>
<path d="M98.9871 123.931C99.3403 127.243 99.8264 130.56 100.106 133.876C100.209 135.097 99.9614 136.925 100.467 138.081C100.552 138.275 100.982 138.225 100.611 138.225" stroke="#FBD8AD" stroke-width="2" stroke-linecap="round"/>
<path d="M104.834 121.332C105.22 125.57 105.809 129.577 105.809 133.839C105.809 135.409 105.634 137.051 106.134 138.55" stroke="#FBD8AD" stroke-width="2" stroke-linecap="round"/>
<path d="M110.682 120.358C110.515 124.03 107.63 126.819 106.386 130.176C106.062 131.052 104.419 132.549 105.231 133.28C106.555 134.471 110.266 133.714 110.935 134.976C111.475 135.998 112.987 135.77 114.255 135.951" stroke="#FBD8AD" stroke-width="2" stroke-linecap="round"/>
<path d="M117.504 119.708C117.142 122.331 116.338 128.931 119.706 130.356C123.42 131.928 127.661 130.525 127.882 126.007C127.982 123.942 128.361 121.236 126.889 119.564C125.631 118.134 123.652 117.759 121.854 117.759C120.908 117.759 117.296 118.307 116.89 119.221C116.728 119.587 117.179 121.139 117.179 121.657" stroke="#FBD8AD" stroke-width="2" stroke-linecap="round"/>
<path d="M226.344 229.658C226.781 231.842 227.171 234.206 227.171 236.44" stroke="#FBD8AD" stroke-width="2" stroke-linecap="round"/>
<path d="M226.84 229.162C227.762 229.162 228.684 229.162 229.606 229.162C230.246 229.162 230.12 229.504 230.185 230.118C230.387 232.038 230.81 234.014 230.81 235.943" stroke="#FBD8AD" stroke-width="2" stroke-linecap="round"/>
<path d="M232.629 228.831C233.132 230.435 233.456 231.989 233.456 233.674C233.456 233.75 233.456 235.081 233.456 234.455" stroke="#FBD8AD" stroke-width="2" stroke-linecap="round"/>
<path d="M238.914 231.478C238.673 230.845 238.458 229.493 237.591 229.493C237.257 229.493 236.643 229.424 236.433 229.768C235.933 230.592 235.835 233.874 237.022 234.198C238.127 234.499 238.643 231.447 238.749 230.651C238.755 230.604 239.373 231.936 239.447 232.139C239.849 233.237 240.072 234.216 240.072 235.392C240.072 236.507 240.659 238.937 239.245 239.251C238.74 239.364 238.449 239.54 238.17 239.013C237.895 238.492 237.613 237.907 237.591 237.303C237.543 235.95 238.581 235.009 239.558 234.207C240.395 233.519 240.761 233.027 241.892 232.801" stroke="#FBD8AD" stroke-width="2" stroke-linecap="round"/>
<path d="M242.884 235.447C242.864 233.692 242.719 231.948 242.719 230.191C242.719 229.917 242.524 228.786 242.866 229.309C243.282 229.946 244.071 232.327 244.795 232.424C245.595 232.531 246.147 230.216 246.275 229.677C246.312 229.521 246.569 228.471 246.725 228.372C247.354 227.971 247.726 230.533 247.754 230.752C247.906 231.942 247.974 233.218 248.012 234.418C248.027 234.912 248.012 234.553 248.012 234.289" stroke="#FBD8AD" stroke-width="2" stroke-linecap="round"/>
<path d="M250.492 231.974C250.945 231.669 253.895 229.185 252.606 228.243C252.163 227.919 251.321 227.975 250.823 228.041C249.949 228.157 249.797 228.712 249.702 229.53C249.501 231.276 249.714 232.91 250.695 234.381C251.299 235.288 253.615 234.124 254.462 234.124" stroke="#FBD8AD" stroke-width="2" stroke-linecap="round"/>
<path d="M257.936 227.508C257.936 229.661 258.266 236.112 258.266 233.959" stroke="#FBD8AD" stroke-width="2" stroke-linecap="round"/>
<path d="M255.289 227.508C257.285 227.964 259.216 228.004 261.243 228.004" stroke="#FBD8AD" stroke-width="2" stroke-linecap="round"/>
<path d="M227.502 243.386C228.283 245.167 228.517 247.178 228.917 249.065C228.972 249.324 229.321 251.013 229.321 250.499" stroke="#FBD8AD" stroke-width="2" stroke-linecap="round"/>
<path d="M227.998 243.552C229.081 243.552 230.373 243.747 231.435 243.515C232.065 243.377 231.995 245.057 232.041 245.472C232.208 246.977 232.197 248.529 232.703 249.975C232.82 250.31 232.795 250.645 232.795 250.995" stroke="#FBD8AD" stroke-width="2" stroke-linecap="round"/>
<path d="M235.606 243.552C235.606 245.797 236.476 252.492 236.231 250.26C236.04 248.512 235.894 246.75 235.781 244.995C235.76 244.662 235.65 243.95 235.79 243.635C236.087 242.966 238.244 243.187 238.492 244.002C238.948 245.501 237.607 246.86 236.103 246.86" stroke="#FBD8AD" stroke-width="2" stroke-linecap="round"/>
<path d="M240.238 243.552C240.238 245.042 240.026 246.576 240.568 247.981C240.68 248.269 240.452 248.816 240.752 248.891C241.115 248.981 242.414 246.197 242.553 245.969C243.055 245.144 243.54 244.258 244.207 243.552C244.464 243.28 244.629 242.821 244.703 243.451C244.91 245.21 245.365 246.905 245.365 248.679" stroke="#FBD8AD" stroke-width="2" stroke-linecap="round"/>
<path d="M249.831 244.379C249.76 244.232 249.383 242.996 249.133 243.092C248.567 243.31 248.261 244.373 247.975 244.838C247.066 246.317 246.887 247.802 248.094 249.166C248.766 249.926 249.844 250.097 250.805 250.223C251.139 250.267 252.727 250.597 252.955 250.085C253.117 249.72 252.643 249.554 252.643 249.175" stroke="#FBD8AD" stroke-width="2" stroke-linecap="round"/>
<path d="M252.808 244.544C253.345 245.219 253.851 245.918 254.462 246.529" stroke="#FBD8AD" stroke-width="2" stroke-linecap="round"/>
<path d="M254.793 244.048C255.383 246.308 255.289 248.565 255.289 250.885C255.289 252.163 255.703 254.283 254.958 255.424C254.791 255.68 254.252 256.528 253.966 255.957" stroke="#FBD8AD" stroke-width="2" stroke-linecap="round"/>
<path d="M259.92 245.867C259.482 245.549 259.202 245.212 258.919 245.831C258.602 246.524 258.205 247.289 258.037 248.036C257.992 248.236 257.745 249.453 258 249.58C258.521 249.841 259.394 249.672 259.966 249.672C260.593 249.672 261.043 246.517 260.086 246.198" stroke="#FBD8AD" stroke-width="2" stroke-linecap="round"/>
<path d="M261.244 246.86C262.272 249.245 262.071 252.255 262.071 254.808C262.071 255.004 262.221 256.135 261.951 256.26C261.469 256.483 260.633 256.112 260.251 255.847C259.216 255.128 258.229 253.481 259.001 252.245C259.672 251.172 260.544 250.404 260.913 249.175" stroke="#FBD8AD" stroke-width="2" stroke-linecap="round"/>
<path d="M263.394 244.379C263.371 245.393 262.725 248.322 264.258 248.643C265.078 248.814 266.702 249.082 266.702 248.018C266.702 246.863 266.922 245.437 266.077 244.508C265.729 244.124 264.866 244.396 264.552 244.71" stroke="#FBD8AD" stroke-width="2" stroke-linecap="round"/>
<path d="M269.844 243.717C269.844 245.161 269.753 246.503 269.265 247.88C269.249 247.928 268.401 249.609 268.576 248.909C268.875 247.715 269.675 246.592 270.543 245.739C270.618 245.665 271.777 244.452 271.792 244.452C272.615 244.452 270.341 245.624 270.341 246.446C270.341 246.876 270.81 247.063 271.094 247.319C271.626 247.8 271.824 248.509 272.325 249.01" stroke="#FBD8AD" stroke-width="2" stroke-linecap="round"/>
</svg>
