<svg width="151" height="95" viewBox="0 0 151 95" fill="none" xmlns="http://www.w3.org/2000/svg">
  <path d="M2.35284 39.2375C-1.38571 51.0266 1.75876 59.9518 6.51101 64.3227C8.16554 65.8445 23.1439 80.8561 44.529 74.5848C61.6371 69.5678 66.3102 78.1956 66.5082 83.1366C75.5374 97.7316 91.6555 94.539 98.5859 91.1183C105.516 85.6071 116.169 72.9885 103.338 66.6032C90.507 60.2178 101.16 53.6805 108.09 51.2099C117.199 48.9295 133.99 41.632 128.287 30.6857C122.585 19.7394 106.902 11.6817 99.7739 9.02121C85.0419 -6.48602 72.2505 2.17979 67.6962 8.45109C55.3404 8.45109 45.7172 18.7132 40.965 24.9845C32.0545 22.704 22.8683 24.5813 20.7679 24.9845C17.7978 25.5546 6.51117 26.1247 2.35284 39.2375Z" fill="#CFE5FF"/>
  <path d="M33.2422 74.0148L33.7222 73.8747L33.5289 73.2121L32.9595 73.6024L33.2422 74.0148ZM37.4004 88.2677L36.9204 88.4078L36.9917 88.652L37.2311 88.7382L37.4004 88.2677ZM44.5288 86.5574L44.875 86.9181L45.1285 86.6748L44.9855 86.3539L44.5288 86.5574ZM38.5885 73.2232L38.4886 72.7333L37.8783 72.8577L38.1318 73.4267L38.5885 73.2232ZM48.687 71.1642L48.7869 71.6541L49.6656 71.4749L49.0513 70.8217L48.687 71.1642ZM26.7079 47.7893L27.0721 47.4468L26.2736 46.5976L26.2087 47.7614L26.7079 47.7893ZM24.9258 79.716L24.4266 79.6881L24.3699 80.7032L25.2085 80.1284L24.9258 79.716ZM32.7622 74.1548L36.9204 88.4078L37.8804 88.1277L33.7222 73.8747L32.7622 74.1548ZM37.2311 88.7382C38.9595 89.3602 42.3373 89.3537 44.875 86.9181L44.1826 86.1966C41.9681 88.322 39.0096 88.3155 37.5698 87.7973L37.2311 88.7382ZM44.9855 86.3539L39.0452 73.0197L38.1318 73.4267L44.0721 86.7609L44.9855 86.3539ZM49.0513 70.8217L27.0721 47.4468L26.3436 48.1318L48.3228 71.5067L49.0513 70.8217ZM26.2087 47.7614L24.4266 79.6881L25.425 79.7438L27.2071 47.8172L26.2087 47.7614ZM25.2085 80.1284L33.5249 74.4272L32.9595 73.6024L24.6431 79.3036L25.2085 80.1284ZM48.5871 70.6743L38.4886 72.7333L38.6884 73.7131L48.7869 71.6541L48.5871 70.6743Z" fill="#3B3C44"/>
  <rect x="44.4355" y="6.10059" width="76.224" height="46.89" stroke="#3B3C44"/>
  <path d="M47.499 16.5029C47.2229 16.5029 46.999 16.7268 46.999 17.0029C46.999 17.2791 47.2229 17.5029 47.499 17.5029V16.5029ZM117.595 17.5029C117.871 17.5029 118.095 17.2791 118.095 17.0029C118.095 16.7268 117.871 16.5029 117.595 16.5029V17.5029ZM54.6274 28.4754C54.3513 28.4754 54.1274 28.6993 54.1274 28.9754C54.1274 29.2516 54.3513 29.4754 54.6274 29.4754V28.4754ZM81.3588 29.4754C81.6349 29.4754 81.8588 29.2516 81.8588 28.9754C81.8588 28.6993 81.6349 28.4754 81.3588 28.4754V29.4754ZM54.6274 38.7376C54.3513 38.7376 54.1274 38.9614 54.1274 39.2376C54.1274 39.5137 54.3513 39.7376 54.6274 39.7376V38.7376ZM108.09 39.7376C108.366 39.7376 108.59 39.5137 108.59 39.2376C108.59 38.9614 108.366 38.7376 108.09 38.7376V39.7376ZM47.499 17.5029H117.595V16.5029H47.499V17.5029ZM54.6274 29.4754H81.3588V28.4754H54.6274V29.4754ZM54.6274 39.7376H108.09V38.7376H54.6274V39.7376Z" fill="#3B3C44"/>
  <ellipse cx="51.6571" cy="13.0119" rx="1.78209" ry="1.71036" fill="#3B3C44"/>
  <ellipse cx="57.5985" cy="13.0119" rx="1.78209" ry="1.71036" fill="#3B3C44"/>
  <ellipse cx="63.538" cy="13.0119" rx="1.78209" ry="1.71036" fill="#3B3C44"/>
  <path d="M11.3579 58.6002C11.3461 58.8761 11.5603 59.1093 11.8362 59.121C12.1121 59.1328 12.3452 58.9186 12.357 58.6427L11.3579 58.6002ZM95.6158 63.1825L95.1639 62.9685L95.1567 62.9837L95.1505 62.9993L95.6158 63.1825ZM150.689 57.7482C150.837 57.5147 150.767 57.2059 150.534 57.0585C150.3 56.911 149.991 56.9808 149.844 57.2143L150.689 57.7482ZM12.357 58.6427C12.5514 54.0713 14.584 48.7019 19.8815 46.9967C25.2232 45.2772 34.1476 47.1758 48.3869 57.8809L48.9878 57.0816C34.7136 46.3502 25.421 44.163 19.5751 46.0448C13.6851 47.9407 11.5595 53.8597 11.3579 58.6002L12.357 58.6427ZM48.3869 57.8809C62.6881 68.6325 73.6881 72.2664 81.5938 72.0773C89.5212 71.8877 94.317 67.8472 96.0811 63.3656L95.1505 62.9993C93.5484 67.0695 89.1367 70.8966 81.5699 71.0776C73.9812 71.2591 63.2001 67.7664 48.9878 57.0816L48.3869 57.8809ZM96.0677 63.3965C96.8333 61.78 97.4494 60.1768 98.2609 58.8028C99.0609 57.4484 99.9874 56.4387 101.285 56.0026C102.584 55.5659 104.367 55.667 106.961 56.7943C109.555 57.9213 112.901 60.0492 117.282 63.5721L117.908 62.7928C113.498 59.2462 110.072 57.0556 107.36 55.8771C104.648 54.699 102.593 54.5079 100.966 55.0547C99.3379 55.602 98.2521 56.8514 97.3999 58.2942C96.5593 59.7173 95.8834 61.4494 95.1639 62.9685L96.0677 63.3965ZM117.282 63.5721C121.727 67.1471 125.796 68.9953 129.476 69.6312C133.16 70.2677 136.422 69.6835 139.241 68.4434C144.856 65.9731 148.694 60.9075 150.689 57.7482L149.844 57.2143C147.879 60.3263 144.173 65.1808 138.838 67.5281C136.182 68.6967 133.118 69.2457 129.646 68.6458C126.17 68.0451 122.254 66.2873 117.908 62.7928L117.282 63.5721Z" fill="#3B3C44"/>
</svg>
