<svg width="30" height="23" viewBox="0 0 30 23" fill="none" xmlns="http://www.w3.org/2000/svg">
  <path d="M29.943 15.0096C29.943 13.757 29.2101 12.6891 28.1897 12.2924V7.37237L30 6.57936L14.9805 0L0 6.57936L7.09087 9.69363V14.2659C7.09087 15.6754 7.99251 16.9458 9.62967 17.843C11.0737 18.6343 12.9741 19.0701 14.981 19.0701C16.9878 19.0701 18.8883 18.6343 20.3322 17.843C21.9694 16.9458 22.871 15.6755 22.871 14.2659V9.70223L26.4362 8.14047V12.2924C25.4158 12.6891 24.6829 13.757 24.6829 15.0097C24.6829 16.1556 25.2962 17.1473 26.1819 17.6115L24.7279 22.3923L26.3913 23L27.313 19.9697L28.2346 23L29.898 22.3923L28.444 17.6115C29.3296 17.1471 29.943 16.1555 29.943 15.0096ZM21.1178 14.2659C21.1178 15.6265 18.4933 17.1483 14.981 17.1483C11.4687 17.1483 8.84428 15.6265 8.84428 14.2659V10.4637L14.9806 13.1587L21.1178 10.4702L21.1178 14.2659ZM14.9814 11.0889L4.71356 6.57936L14.9814 2.06978L25.2758 6.57936L14.9814 11.0889ZM27.313 15.9704C26.8296 15.9704 26.4363 15.5394 26.4363 15.0096C26.4363 14.4798 26.8296 14.0488 27.313 14.0488C27.7964 14.0488 28.1896 14.4798 28.1896 15.0096C28.1896 15.5394 27.7964 15.9704 27.313 15.9704Z" fill="#2653AF"/>
</svg>