<svg width="235" height="50" viewBox="0 0 235 50" fill="none" xmlns="http://www.w3.org/2000/svg">
<circle cx="21.707" cy="29" r="12.5" fill="white" stroke="#2653AF" stroke-width="3"/>
<path d="M45.0462 49.5329C45.6971 50.0434 46.6402 49.9283 47.1528 49.2758C47.6653 48.6234 47.5531 47.6806 46.9023 47.1702L45.0462 49.5329ZM30.572 38.1814L45.0462 49.5329L46.9023 47.1702L32.428 35.8187L30.572 38.1814Z" fill="#2653AF"/>
<rect x="12.0862" y="11.1111" width="19.1366" height="11.1111" rx="3" fill="#FCFCF9"/>
<path d="M3.5 8.5L22 1.5C21.2 1.1 33.3333 6 39.5 8.5L31.5 12V17.5L30.5 21L24.5 23.5L15 22.5L11.5 19.5V12L3.5 8.5Z" fill="#787A87"/>
<path d="M43.2269 19.2414C43.2269 17.6129 42.1688 16.2245 40.6957 15.7088V9.58467L43.3091 8.55369L21.6265 0L0 8.55369L10.2366 12.6025V18.5469C10.2366 20.3793 11.5383 22.0309 13.9017 23.1973C15.9864 24.2261 18.7299 24.7926 21.6271 24.7926C24.5242 24.7926 27.2678 24.2261 29.3524 23.1973C31.7159 22.0309 33.0175 20.3794 33.0175 18.5469V12.6137L38.1643 10.5833V15.7089C36.6912 16.2245 35.6331 17.613 35.6331 19.2415C35.6331 20.7313 36.5185 22.0206 37.7972 22.6241L35.6981 28.8396L38.0994 29.6296L39.43 25.6899L40.7606 29.6296L43.1619 28.8396L41.0628 22.6241C42.3414 22.0204 43.2269 20.7312 43.2269 19.2414ZM30.4864 18.5468C30.4864 20.3157 26.6977 22.2942 21.6272 22.2942C16.5566 22.2942 12.7679 20.3157 12.7679 18.5468V13.6036L21.6266 17.1074L30.4865 13.6121L30.4864 18.5468ZM21.6277 14.4165L6.80466 8.55369L21.6277 2.69088L36.4891 8.55369L21.6277 14.4165ZM39.43 20.4906C38.7322 20.4906 38.1644 19.9302 38.1644 19.2414C38.1644 18.5527 38.7322 17.9923 39.43 17.9923C40.1279 17.9923 40.6956 18.5527 40.6956 19.2414C40.6956 19.9302 40.1279 20.4906 39.43 20.4906Z" fill="#3B3C44"/>
<path d="M63.33 35.3C61.71 35.3 60.14 35.07 58.62 34.61C57.12 34.15 55.93 33.54 55.05 32.78L56.4 29.75C57.26 30.43 58.31 30.99 59.55 31.43C60.81 31.85 62.07 32.06 63.33 32.06C64.89 32.06 66.05 31.81 66.81 31.31C67.59 30.81 67.98 30.15 67.98 29.33C67.98 28.73 67.76 28.24 67.32 27.86C66.9 27.46 66.36 27.15 65.7 26.93C65.04 26.71 64.14 26.46 63 26.18C61.4 25.8 60.1 25.42 59.1 25.04C58.12 24.66 57.27 24.07 56.55 23.27C55.85 22.45 55.5 21.35 55.5 19.97C55.5 18.81 55.81 17.76 56.43 16.82C57.07 15.86 58.02 15.1 59.28 14.54C60.56 13.98 62.12 13.7 63.96 13.7C65.24 13.7 66.5 13.86 67.74 14.18C68.98 14.5 70.05 14.96 70.95 15.56L69.72 18.59C68.8 18.05 67.84 17.64 66.84 17.36C65.84 17.08 64.87 16.94 63.93 16.94C62.39 16.94 61.24 17.2 60.48 17.72C59.74 18.24 59.37 18.93 59.37 19.79C59.37 20.39 59.58 20.88 60 21.26C60.44 21.64 60.99 21.94 61.65 22.16C62.31 22.38 63.21 22.63 64.35 22.91C65.91 23.27 67.19 23.65 68.19 24.05C69.19 24.43 70.04 25.02 70.74 25.82C71.46 26.62 71.82 27.7 71.82 29.06C71.82 30.22 71.5 31.27 70.86 32.21C70.24 33.15 69.29 33.9 68.01 34.46C66.73 35.02 65.17 35.3 63.33 35.3ZM84.3272 34.13C83.8872 34.49 83.3472 34.76 82.7072 34.94C82.0872 35.12 81.4272 35.21 80.7272 35.21C78.9672 35.21 77.6072 34.75 76.6472 33.83C75.6872 32.91 75.2072 31.57 75.2072 29.81V15.44H78.9572V19.1H83.2472V22.1H78.9572V29.72C78.9572 30.5 79.1472 31.1 79.5272 31.52C79.9272 31.92 80.4772 32.12 81.1772 32.12C82.0172 32.12 82.7172 31.9 83.2772 31.46L84.3272 34.13ZM102.937 18.98V35H99.3668V32.96C98.7668 33.68 98.0168 34.24 97.1168 34.64C96.2168 35.02 95.2468 35.21 94.2068 35.21C92.0668 35.21 90.3768 34.62 89.1368 33.44C87.9168 32.24 87.3068 30.47 87.3068 28.13V18.98H91.0568V27.62C91.0568 29.06 91.3768 30.14 92.0168 30.86C92.6768 31.56 93.6068 31.91 94.8068 31.91C96.1468 31.91 97.2068 31.5 97.9868 30.68C98.7868 29.84 99.1868 28.64 99.1868 27.08V18.98H102.937ZM123.537 12.74V35H119.937V32.93C119.317 33.69 118.547 34.26 117.627 34.64C116.727 35.02 115.727 35.21 114.627 35.21C113.087 35.21 111.697 34.87 110.457 34.19C109.237 33.51 108.277 32.55 107.577 31.31C106.877 30.05 106.527 28.61 106.527 26.99C106.527 25.37 106.877 23.94 107.577 22.7C108.277 21.46 109.237 20.5 110.457 19.82C111.697 19.14 113.087 18.8 114.627 18.8C115.687 18.8 116.657 18.98 117.537 19.34C118.417 19.7 119.167 20.24 119.787 20.96V12.74H123.537ZM115.077 32C115.977 32 116.787 31.8 117.507 31.4C118.227 30.98 118.797 30.39 119.217 29.63C119.637 28.87 119.847 27.99 119.847 26.99C119.847 25.99 119.637 25.11 119.217 24.35C118.797 23.59 118.227 23.01 117.507 22.61C116.787 22.19 115.977 21.98 115.077 21.98C114.177 21.98 113.367 22.19 112.647 22.61C111.927 23.01 111.357 23.59 110.937 24.35C110.517 25.11 110.307 25.99 110.307 26.99C110.307 27.99 110.517 28.87 110.937 29.63C111.357 30.39 111.927 30.98 112.647 31.4C113.367 31.8 114.177 32 115.077 32ZM135.312 35.3C133.692 35.3 132.122 35.07 130.602 34.61C129.102 34.15 127.912 33.54 127.032 32.78L128.382 29.75C129.242 30.43 130.292 30.99 131.532 31.43C132.792 31.85 134.052 32.06 135.312 32.06C136.872 32.06 138.032 31.81 138.792 31.31C139.572 30.81 139.962 30.15 139.962 29.33C139.962 28.73 139.742 28.24 139.302 27.86C138.882 27.46 138.342 27.15 137.682 26.93C137.022 26.71 136.122 26.46 134.982 26.18C133.382 25.8 132.082 25.42 131.082 25.04C130.102 24.66 129.252 24.07 128.532 23.27C127.832 22.45 127.482 21.35 127.482 19.97C127.482 18.81 127.792 17.76 128.412 16.82C129.052 15.86 130.002 15.1 131.262 14.54C132.542 13.98 134.102 13.7 135.942 13.7C137.222 13.7 138.482 13.86 139.722 14.18C140.962 14.5 142.032 14.96 142.932 15.56L141.702 18.59C140.782 18.05 139.822 17.64 138.822 17.36C137.822 17.08 136.852 16.94 135.912 16.94C134.372 16.94 133.222 17.2 132.462 17.72C131.722 18.24 131.352 18.93 131.352 19.79C131.352 20.39 131.562 20.88 131.982 21.26C132.422 21.64 132.972 21.94 133.632 22.16C134.292 22.38 135.192 22.63 136.332 22.91C137.892 23.27 139.172 23.65 140.172 24.05C141.172 24.43 142.022 25.02 142.722 25.82C143.442 26.62 143.802 27.7 143.802 29.06C143.802 30.22 143.482 31.27 142.842 32.21C142.222 33.15 141.272 33.9 139.992 34.46C138.712 35.02 137.152 35.3 135.312 35.3ZM154.93 32.03C156.67 32.03 158.12 31.45 159.28 30.29L161.26 32.6C160.56 33.46 159.66 34.11 158.56 34.55C157.46 34.99 156.22 35.21 154.84 35.21C153.08 35.21 151.53 34.86 150.19 34.16C148.85 33.46 147.81 32.49 147.07 31.25C146.35 29.99 145.99 28.57 145.99 26.99C145.99 25.43 146.34 24.03 147.04 22.79C147.76 21.53 148.74 20.55 149.98 19.85C151.24 19.15 152.66 18.8 154.24 18.8C155.74 18.8 157.1 19.13 158.32 19.79C159.56 20.43 160.54 21.36 161.26 22.58C161.98 23.78 162.34 25.19 162.34 26.81L150.07 29.21C150.45 30.13 151.06 30.83 151.9 31.31C152.74 31.79 153.75 32.03 154.93 32.03ZM154.24 21.8C152.86 21.8 151.74 22.25 150.88 23.15C150.04 24.05 149.62 25.26 149.62 26.78V26.81L158.68 25.07C158.42 24.09 157.89 23.3 157.09 22.7C156.31 22.1 155.36 21.8 154.24 21.8ZM181.602 18.98V35H178.032V32.93C177.412 33.69 176.642 34.26 175.722 34.64C174.822 35.02 173.822 35.21 172.722 35.21C171.162 35.21 169.762 34.87 168.522 34.19C167.302 33.51 166.342 32.55 165.642 31.31C164.962 30.07 164.622 28.63 164.622 26.99C164.622 25.35 164.962 23.92 165.642 22.7C166.342 21.46 167.302 20.5 168.522 19.82C169.762 19.14 171.162 18.8 172.722 18.8C173.762 18.8 174.712 18.98 175.572 19.34C176.452 19.7 177.212 20.23 177.852 20.93V18.98H181.602ZM173.142 32C174.522 32 175.662 31.54 176.562 30.62C177.462 29.7 177.912 28.49 177.912 26.99C177.912 25.49 177.462 24.28 176.562 23.36C175.662 22.44 174.522 21.98 173.142 21.98C171.762 21.98 170.622 22.44 169.722 23.36C168.842 24.28 168.402 25.49 168.402 26.99C168.402 28.49 168.842 29.7 169.722 30.62C170.622 31.54 171.762 32 173.142 32ZM190.079 21.32C191.159 19.64 193.059 18.8 195.779 18.8V22.37C195.459 22.31 195.169 22.28 194.909 22.28C193.449 22.28 192.309 22.71 191.489 23.57C190.669 24.41 190.259 25.63 190.259 27.23V35H186.509V18.98H190.079V21.32ZM206.164 35.21C204.504 35.21 203.014 34.86 201.694 34.16C200.374 33.46 199.344 32.49 198.604 31.25C197.864 29.99 197.494 28.57 197.494 26.99C197.494 25.41 197.864 24 198.604 22.76C199.344 21.52 200.364 20.55 201.664 19.85C202.984 19.15 204.484 18.8 206.164 18.8C207.744 18.8 209.124 19.12 210.304 19.76C211.504 20.4 212.404 21.32 213.004 22.52L210.124 24.2C209.664 23.46 209.084 22.91 208.384 22.55C207.704 22.17 206.954 21.98 206.134 21.98C204.734 21.98 203.574 22.44 202.654 23.36C201.734 24.26 201.274 25.47 201.274 26.99C201.274 28.51 201.724 29.73 202.624 30.65C203.544 31.55 204.714 32 206.134 32C206.954 32 207.704 31.82 208.384 31.46C209.084 31.08 209.664 30.52 210.124 29.78L213.004 31.46C212.384 32.66 211.474 33.59 210.274 34.25C209.094 34.89 207.724 35.21 206.164 35.21ZM225.189 18.8C227.209 18.8 228.829 19.39 230.049 20.57C231.269 21.75 231.879 23.5 231.879 25.82V35H228.129V26.3C228.129 24.9 227.799 23.85 227.139 23.15C226.479 22.43 225.539 22.07 224.319 22.07C222.939 22.07 221.849 22.49 221.049 23.33C220.249 24.15 219.849 25.34 219.849 26.9V35H216.099V12.74H219.849V20.84C220.469 20.18 221.229 19.68 222.129 19.34C223.049 18.98 224.069 18.8 225.189 18.8Z" fill="#2653AF"/>
</svg>
