<svg width="177" height="24" viewBox="0 0 177 24" fill="none" xmlns="http://www.w3.org/2000/svg">
  <path d="M8.33 23.3C6.71 23.3 5.14 23.07 3.62 22.61C2.12 22.15 0.93 21.54 0.05 20.78L1.4 17.75C2.26 18.43 3.31 18.99 4.55 19.43C5.81 19.85 7.07 20.06 8.33 20.06C9.89 20.06 11.05 19.81 11.81 19.31C12.59 18.81 12.98 18.15 12.98 17.33C12.98 16.73 12.76 16.24 12.32 15.86C11.9 15.46 11.36 15.15 10.7 14.93C10.04 14.71 9.14 14.46 8 14.18C6.4 13.8 5.1 13.42 4.1 13.04C3.12 12.66 2.27 12.07 1.55 11.27C0.85 10.45 0.5 9.35 0.5 7.97C0.5 6.81 0.81 5.76 1.43 4.82C2.07 3.86 3.02 3.1 4.28 2.54C5.56 1.98 7.12 1.7 8.96 1.7C10.24 1.7 11.5 1.86 12.74 2.18C13.98 2.5 15.05 2.96 15.95 3.56L14.72 6.59C13.8 6.05 12.84 5.64 11.84 5.36C10.84 5.08 9.87 4.94 8.93 4.94C7.39 4.94 6.24 5.2 5.48 5.72C4.74 6.24 4.37 6.93 4.37 7.79C4.37 8.39 4.58 8.88 5 9.26C5.44 9.64 5.99 9.94 6.65 10.16C7.31 10.38 8.21 10.63 9.35 10.91C10.91 11.27 12.19 11.65 13.19 12.05C14.19 12.43 15.04 13.02 15.74 13.82C16.46 14.62 16.82 15.7 16.82 17.06C16.82 18.22 16.5 19.27 15.86 20.21C15.24 21.15 14.29 21.9 13.01 22.46C11.73 23.02 10.17 23.3 8.33 23.3ZM29.3272 22.13C28.8872 22.49 28.3472 22.76 27.7072 22.94C27.0872 23.12 26.4272 23.21 25.7272 23.21C23.9672 23.21 22.6072 22.75 21.6472 21.83C20.6872 20.91 20.2072 19.57 20.2072 17.81V3.44H23.9572V7.1H28.2472V10.1H23.9572V17.72C23.9572 18.5 24.1472 19.1 24.5272 19.52C24.9272 19.92 25.4772 20.12 26.1772 20.12C27.0172 20.12 27.7172 19.9 28.2772 19.46L29.3272 22.13ZM47.9368 6.98V23H44.3668V20.96C43.7668 21.68 43.0168 22.24 42.1168 22.64C41.2168 23.02 40.2468 23.21 39.2068 23.21C37.0668 23.21 35.3768 22.62 34.1368 21.44C32.9168 20.24 32.3068 18.47 32.3068 16.13V6.98H36.0568V15.62C36.0568 17.06 36.3768 18.14 37.0168 18.86C37.6768 19.56 38.6068 19.91 39.8068 19.91C41.1468 19.91 42.2068 19.5 42.9868 18.68C43.7868 17.84 44.1868 16.64 44.1868 15.08V6.98H47.9368ZM68.5367 0.739999V23H64.9367V20.93C64.3167 21.69 63.5467 22.26 62.6267 22.64C61.7267 23.02 60.7267 23.21 59.6267 23.21C58.0867 23.21 56.6967 22.87 55.4567 22.19C54.2367 21.51 53.2767 20.55 52.5767 19.31C51.8767 18.05 51.5267 16.61 51.5267 14.99C51.5267 13.37 51.8767 11.94 52.5767 10.7C53.2767 9.46 54.2367 8.5 55.4567 7.82C56.6967 7.14 58.0867 6.8 59.6267 6.8C60.6867 6.8 61.6567 6.98 62.5367 7.34C63.4167 7.7 64.1667 8.24 64.7867 8.96V0.739999H68.5367ZM60.0767 20C60.9767 20 61.7867 19.8 62.5067 19.4C63.2267 18.98 63.7967 18.39 64.2167 17.63C64.6367 16.87 64.8467 15.99 64.8467 14.99C64.8467 13.99 64.6367 13.11 64.2167 12.35C63.7967 11.59 63.2267 11.01 62.5067 10.61C61.7867 10.19 60.9767 9.98 60.0767 9.98C59.1767 9.98 58.3667 10.19 57.6467 10.61C56.9267 11.01 56.3567 11.59 55.9367 12.35C55.5167 13.11 55.3067 13.99 55.3067 14.99C55.3067 15.99 55.5167 16.87 55.9367 17.63C56.3567 18.39 56.9267 18.98 57.6467 19.4C58.3667 19.8 59.1767 20 60.0767 20ZM80.3124 23.3C78.6924 23.3 77.1224 23.07 75.6024 22.61C74.1024 22.15 72.9124 21.54 72.0324 20.78L73.3824 17.75C74.2424 18.43 75.2924 18.99 76.5324 19.43C77.7924 19.85 79.0524 20.06 80.3124 20.06C81.8724 20.06 83.0324 19.81 83.7924 19.31C84.5724 18.81 84.9624 18.15 84.9624 17.33C84.9624 16.73 84.7424 16.24 84.3024 15.86C83.8824 15.46 83.3424 15.15 82.6824 14.93C82.0224 14.71 81.1224 14.46 79.9824 14.18C78.3824 13.8 77.0824 13.42 76.0824 13.04C75.1024 12.66 74.2524 12.07 73.5324 11.27C72.8324 10.45 72.4824 9.35 72.4824 7.97C72.4824 6.81 72.7924 5.76 73.4124 4.82C74.0524 3.86 75.0024 3.1 76.2624 2.54C77.5424 1.98 79.1024 1.7 80.9424 1.7C82.2224 1.7 83.4824 1.86 84.7224 2.18C85.9624 2.5 87.0324 2.96 87.9324 3.56L86.7024 6.59C85.7824 6.05 84.8224 5.64 83.8224 5.36C82.8224 5.08 81.8524 4.94 80.9124 4.94C79.3724 4.94 78.2224 5.2 77.4624 5.72C76.7224 6.24 76.3524 6.93 76.3524 7.79C76.3524 8.39 76.5624 8.88 76.9824 9.26C77.4224 9.64 77.9724 9.94 78.6324 10.16C79.2924 10.38 80.1924 10.63 81.3324 10.91C82.8924 11.27 84.1724 11.65 85.1724 12.05C86.1724 12.43 87.0224 13.02 87.7224 13.82C88.4424 14.62 88.8024 15.7 88.8024 17.06C88.8024 18.22 88.4824 19.27 87.8424 20.21C87.2224 21.15 86.2724 21.9 84.9924 22.46C83.7124 23.02 82.1524 23.3 80.3124 23.3ZM99.9296 20.03C101.67 20.03 103.12 19.45 104.28 18.29L106.26 20.6C105.56 21.46 104.66 22.11 103.56 22.55C102.46 22.99 101.22 23.21 99.8396 23.21C98.0796 23.21 96.5296 22.86 95.1896 22.16C93.8496 21.46 92.8096 20.49 92.0696 19.25C91.3496 17.99 90.9896 16.57 90.9896 14.99C90.9896 13.43 91.3396 12.03 92.0396 10.79C92.7596 9.53 93.7396 8.55 94.9796 7.85C96.2396 7.15 97.6596 6.8 99.2396 6.8C100.74 6.8 102.1 7.13 103.32 7.79C104.56 8.43 105.54 9.36 106.26 10.58C106.98 11.78 107.34 13.19 107.34 14.81L95.0696 17.21C95.4496 18.13 96.0596 18.83 96.8996 19.31C97.7396 19.79 98.7496 20.03 99.9296 20.03ZM99.2396 9.8C97.8596 9.8 96.7396 10.25 95.8796 11.15C95.0396 12.05 94.6196 13.26 94.6196 14.78V14.81L103.68 13.07C103.42 12.09 102.89 11.3 102.09 10.7C101.31 10.1 100.36 9.8 99.2396 9.8ZM126.602 6.98V23H123.032V20.93C122.412 21.69 121.642 22.26 120.722 22.64C119.822 23.02 118.822 23.21 117.722 23.21C116.162 23.21 114.762 22.87 113.522 22.19C112.302 21.51 111.342 20.55 110.642 19.31C109.962 18.07 109.622 16.63 109.622 14.99C109.622 13.35 109.962 11.92 110.642 10.7C111.342 9.46 112.302 8.5 113.522 7.82C114.762 7.14 116.162 6.8 117.722 6.8C118.762 6.8 119.712 6.98 120.572 7.34C121.452 7.7 122.212 8.23 122.852 8.93V6.98H126.602ZM118.142 20C119.522 20 120.662 19.54 121.562 18.62C122.462 17.7 122.912 16.49 122.912 14.99C122.912 13.49 122.462 12.28 121.562 11.36C120.662 10.44 119.522 9.98 118.142 9.98C116.762 9.98 115.622 10.44 114.722 11.36C113.842 12.28 113.402 13.49 113.402 14.99C113.402 16.49 113.842 17.7 114.722 18.62C115.622 19.54 116.762 20 118.142 20ZM135.079 9.32C136.159 7.64 138.059 6.8 140.779 6.8V10.37C140.459 10.31 140.169 10.28 139.909 10.28C138.449 10.28 137.309 10.71 136.489 11.57C135.669 12.41 135.259 13.63 135.259 15.23V23H131.509V6.98H135.079V9.32ZM151.164 23.21C149.504 23.21 148.014 22.86 146.694 22.16C145.374 21.46 144.344 20.49 143.604 19.25C142.864 17.99 142.494 16.57 142.494 14.99C142.494 13.41 142.864 12 143.604 10.76C144.344 9.52 145.364 8.55 146.664 7.85C147.984 7.15 149.484 6.8 151.164 6.8C152.744 6.8 154.124 7.12 155.304 7.76C156.504 8.4 157.404 9.32 158.004 10.52L155.124 12.2C154.664 11.46 154.084 10.91 153.384 10.55C152.704 10.17 151.954 9.98 151.134 9.98C149.734 9.98 148.574 10.44 147.654 11.36C146.734 12.26 146.274 13.47 146.274 14.99C146.274 16.51 146.724 17.73 147.624 18.65C148.544 19.55 149.714 20 151.134 20C151.954 20 152.704 19.82 153.384 19.46C154.084 19.08 154.664 18.52 155.124 17.78L158.004 19.46C157.384 20.66 156.474 21.59 155.274 22.25C154.094 22.89 152.724 23.21 151.164 23.21ZM170.189 6.8C172.209 6.8 173.829 7.39 175.049 8.57C176.269 9.75 176.879 11.5 176.879 13.82V23H173.129V14.3C173.129 12.9 172.799 11.85 172.139 11.15C171.479 10.43 170.539 10.07 169.319 10.07C167.939 10.07 166.849 10.49 166.049 11.33C165.249 12.15 164.849 13.34 164.849 14.9V23H161.099V0.739999H164.849V8.84C165.469 8.18 166.229 7.68 167.129 7.34C168.049 6.98 169.069 6.8 170.189 6.8Z" fill="#2653AF"/>
</svg>