<svg width="25" height="23" viewBox="0 0 25 23" fill="none" xmlns="http://www.w3.org/2000/svg">
  <path d="M23.75 8.76132C24.0815 8.76132 24.3995 8.64592 24.6339 8.44052C24.8683 8.23511 25 7.95652 25 7.66603V4.38018C25 4.15036 24.9174 3.92637 24.7639 3.74C24.6105 3.55362 24.3939 3.41432 24.145 3.34186L12.895 0.0560052C12.6386 -0.0186684 12.3614 -0.0186684 12.105 0.0560052L0.855 3.34186C0.606092 3.41432 0.389545 3.55362 0.236076 3.74C0.0826077 3.92637 9.97013e-06 4.15036 0 4.38018V7.66603C0 7.95652 0.131696 8.23511 0.366116 8.44052C0.600537 8.64592 0.918479 8.76132 1.25 8.76132H2.5V16.6298C1.77086 16.8549 1.1391 17.2722 0.691471 17.8244C0.243842 18.3767 0.00229566 19.0368 0 19.7142V21.9047C0 22.1952 0.131696 22.4738 0.366116 22.6792C0.600537 22.8846 0.918479 23 1.25 23H23.75C24.0815 23 24.3995 22.8846 24.6339 22.6792C24.8683 22.4738 25 22.1952 25 21.9047V19.7142C24.9977 19.0368 24.7562 18.3767 24.3085 17.8244C23.8609 17.2722 23.2291 16.8549 22.5 16.6298V8.76132H23.75ZM22.5 20.8094H2.5V19.7142C2.50033 19.4238 2.63213 19.1453 2.86648 18.94C3.10083 18.7346 3.41858 18.6192 3.75 18.6189H21.25C21.5814 18.6192 21.8992 18.7346 22.1335 18.94C22.3679 19.1453 22.4997 19.4238 22.5 19.7142V20.8094ZM5 16.4283V8.76132H7.5V16.4283H5ZM10 16.4283V8.76132H15V16.4283H10ZM17.5 16.4283V8.76132H20V16.4283H17.5ZM2.5 6.57075V5.16879L12.5 2.24876L22.5 5.16988V6.57075H2.5Z" fill="#2653AF"/>
</svg>