<svg width="246" height="44" viewBox="0 0 246 44" fill="none" xmlns="http://www.w3.org/2000/svg">
  <path d="M12.3944 38.5109C10.2345 38.4882 8.14451 38.1594 6.12434 37.5248C4.13083 36.8904 2.55271 36.0604 1.38999 35.0348L3.23192 31.0139C4.36909 31.9326 5.76125 32.694 7.40838 33.2981C9.08246 33.8758 10.7595 34.1735 12.4394 34.1912C14.5192 34.2131 16.0693 33.8961 17.0895 33.2401C18.1364 32.5844 18.6655 31.71 18.6769 30.6167C18.6852 29.8167 18.3987 29.1604 17.8173 28.6475C17.2629 28.1083 16.5473 27.6874 15.6704 27.3848C14.7935 27.0822 13.597 26.7363 12.081 26.3469C9.95302 25.8178 8.22505 25.2929 6.89707 24.7722C5.59574 24.2518 4.47066 23.4532 3.52181 22.3765C2.59991 21.2734 2.14853 19.8019 2.16767 17.962C2.18376 16.4154 2.61164 15.0199 3.4513 13.7753C4.31791 12.5044 5.59505 11.5044 7.28272 10.7755C8.99706 10.0469 11.0808 9.69548 13.534 9.72134C15.2406 9.73932 16.9183 9.97035 18.5671 10.4144C20.2159 10.8585 21.6361 11.4868 22.8277 12.2994L21.1458 16.3219C19.9267 15.589 18.6524 15.0289 17.323 14.6415C15.9937 14.2542 14.7023 14.0539 13.4491 14.0407C11.3959 14.019 9.85901 14.3495 8.83852 15.0321C7.84469 15.715 7.34181 16.6298 7.32988 17.7764C7.32156 18.5764 7.59474 19.2326 8.14944 19.7451C8.7308 20.258 9.45993 20.6657 10.3368 20.9683C11.2137 21.2709 12.4102 21.6168 13.9262 22.0062C16.0011 22.508 17.7024 23.0327 19.0301 23.58C20.3581 24.1007 21.4832 24.8993 22.4054 25.9757C23.3542 27.0525 23.8192 28.4974 23.8004 30.3107C23.7843 31.8573 23.3431 33.2527 22.4767 34.497C21.6371 35.7415 20.3601 36.7281 18.6457 37.4568C16.9314 38.1854 14.8476 38.5368 12.3944 38.5109ZM40.4053 37.2461C39.8137 37.7199 39.09 38.0723 38.2342 38.3032C37.4051 38.5345 36.5239 38.6452 35.5906 38.6354C33.2441 38.6107 31.4372 37.9783 30.1701 36.7382C28.9029 35.4981 28.2815 33.7048 28.3059 31.3582L28.5053 12.1993L33.505 12.252L33.4543 17.1317L39.1739 17.192L39.1323 21.1918L33.4126 21.1315L33.3069 31.2909C33.2961 32.3309 33.5411 33.1335 34.0419 33.6988C34.5697 34.2377 35.3002 34.5121 36.2335 34.5219C37.3534 34.5338 38.2897 34.2503 39.0425 33.6715L40.4053 37.2461ZM65.427 17.3087L65.2047 38.6675L60.445 38.6173L60.4733 35.8975C59.6633 36.849 58.6556 37.5851 57.4501 38.1058C56.2449 38.5997 54.949 38.8394 53.5624 38.8248C50.7093 38.7947 48.4642 37.9844 46.8274 36.3937C45.2174 34.7766 44.4287 32.4082 44.4612 29.2884L44.5881 17.089L49.5878 17.1417L49.468 28.6611C49.448 30.581 49.8597 32.0254 50.7029 32.9944C51.5732 33.9369 52.8083 34.4166 54.4082 34.4335C56.1947 34.4523 57.6137 33.9206 58.665 32.8383C59.7433 31.7296 60.2932 30.1353 60.3149 28.0554L60.4272 17.256L65.427 17.3087ZM92.9786 9.27859L92.6697 38.957L87.87 38.9064L87.8987 36.1465C87.0616 37.1511 86.027 37.9003 84.7952 38.394C83.59 38.888 82.2541 39.1272 80.7875 39.1118C78.7343 39.0901 76.8858 38.6173 75.2419 37.6932C73.6248 36.7695 72.3582 35.4761 71.4421 33.813C70.5263 32.1232 70.0797 30.1984 70.1021 28.0385C70.1246 25.8787 70.6111 23.977 71.5616 22.3336C72.512 20.6902 73.8053 19.4237 75.4413 18.5343C77.104 17.6451 78.9619 17.2113 81.0151 17.2329C82.4284 17.2478 83.7192 17.5015 84.8874 17.9938C86.0557 18.4861 87.0482 19.2166 87.8648 20.1853L87.9788 9.22589L92.9786 9.27859ZM81.432 34.8383C82.6319 34.851 83.7146 34.5957 84.6801 34.0725C85.6459 33.5227 86.414 32.744 86.9846 31.7367C87.5551 30.7293 87.8473 29.559 87.8611 28.2257C87.875 26.8924 87.6072 25.7162 87.0578 24.697C86.5084 23.6779 85.7565 22.8966 84.8021 22.3531C83.848 21.7831 82.7709 21.4917 81.571 21.479C80.3711 21.4664 79.2882 21.735 78.3224 22.2848C77.3569 22.808 76.5889 23.5733 76.0184 24.5807C75.4479 25.5881 75.1557 26.7584 75.1418 28.0917C75.128 29.4249 75.3957 30.6011 75.9452 31.6203C76.4946 32.6395 77.2464 33.4341 78.2005 34.0042C79.1549 34.5476 80.2321 34.8257 81.432 34.8383Z" fill="#6DB5CA"/>
  <path d="M108.366 39.5224C106.206 39.4997 104.116 39.171 102.096 38.5363C100.102 37.9019 98.5239 37.0719 97.3612 36.0463L99.2032 32.0255C100.34 32.9442 101.732 33.7055 103.38 34.3096C105.054 34.8873 106.731 35.185 108.411 35.2027C110.49 35.2246 112.041 34.9076 113.061 34.2516C114.108 33.596 114.637 32.7215 114.648 31.6282C114.656 30.8283 114.37 30.1719 113.789 29.659C113.234 29.1198 112.518 28.6989 111.642 28.3963C110.765 28.0938 109.568 27.7478 108.052 27.3585C105.924 26.8293 104.196 26.3044 102.868 25.7837C101.567 25.2633 100.442 24.4648 99.493 23.388C98.5711 22.2849 98.1198 20.8134 98.1389 18.9735C98.155 17.4269 98.5829 16.0314 99.4225 14.7868C100.289 13.5159 101.566 12.5159 103.254 11.787C104.968 11.0584 107.052 10.707 109.505 10.7328C111.212 10.7508 112.89 10.9819 114.538 11.4259C116.187 11.87 117.607 12.4983 118.799 13.3109L117.117 17.3334C115.898 16.6005 114.624 16.0404 113.294 15.6531C111.965 15.2657 110.674 15.0654 109.42 15.0522C107.367 15.0306 105.83 15.361 104.81 16.0437C103.816 16.7266 103.313 17.6413 103.301 18.7879C103.293 19.5879 103.566 20.2441 104.121 20.7567C104.702 21.2695 105.431 21.6772 106.308 21.9798C107.185 22.2824 108.381 22.6283 109.897 23.0177C111.972 23.5196 113.674 24.0442 115.001 24.5915C116.329 25.1122 117.454 25.9108 118.377 26.9872C119.325 28.064 119.79 29.509 119.772 31.3222C119.755 32.8688 119.314 34.2642 118.448 35.5085C117.608 36.753 116.331 37.7396 114.617 38.4683C112.903 39.1969 110.819 39.5483 108.366 39.5224ZM134.566 35.4383C136.886 35.4628 138.827 34.7099 140.39 33.1796L142.997 36.2872C142.052 37.424 140.843 38.278 139.371 38.8492C137.898 39.4203 136.242 39.6962 134.402 39.6768C132.055 39.6521 129.993 39.1637 128.217 38.2116C126.44 37.2595 125.067 35.9516 124.097 34.2879C123.155 32.5979 122.694 30.6996 122.716 28.5931C122.738 26.5132 123.224 24.6515 124.175 23.0081C125.152 21.3383 126.472 20.0455 128.135 19.1297C129.825 18.2141 131.723 17.7674 133.829 17.7896C135.829 17.8107 137.638 18.2698 139.255 19.1669C140.9 20.0376 142.193 21.2913 143.136 22.928C144.08 24.538 144.54 26.423 144.518 28.5828L128.125 31.6102C128.619 32.8422 129.423 33.784 130.536 34.4358C131.649 35.0876 132.993 35.4218 134.566 35.4383ZM133.788 21.7894C131.948 21.77 130.448 22.3542 129.289 23.5421C128.157 24.7302 127.58 26.3375 127.559 28.3641L127.559 28.4041L139.662 26.2115C139.329 24.9013 138.633 23.8406 137.575 23.0294C136.543 22.2184 135.281 21.8051 133.788 21.7894ZM170.309 18.4141L170.086 39.7729L165.327 39.7228L165.355 36.9629C164.518 37.9675 163.484 38.7166 162.252 39.2103C161.047 39.7043 159.711 39.9436 158.244 39.9281C156.164 39.9062 154.302 39.4332 152.659 38.5092C151.041 37.5854 149.775 36.292 148.859 34.6289C147.969 32.9661 147.536 31.0415 147.559 28.8549C147.582 26.6684 148.055 24.7666 148.978 23.1495C149.929 21.5061 151.222 20.2397 152.858 19.3502C154.521 18.461 156.392 18.0274 158.472 18.0493C159.858 18.0639 161.122 18.3173 162.264 18.8093C163.432 19.3017 164.438 20.019 165.282 20.9613L165.309 18.3614L170.309 18.4141ZM158.849 35.6543C160.689 35.6737 162.215 35.0764 163.428 33.8624C164.64 32.6485 165.257 31.0416 165.278 29.0417C165.299 27.0418 164.715 25.4222 163.528 24.183C162.341 22.9437 160.828 22.3144 158.988 22.295C157.148 22.2756 155.621 22.8729 154.409 24.0868C153.223 25.3011 152.619 26.9081 152.598 28.908C152.578 30.9079 153.148 32.5273 154.308 33.7663C155.495 35.0056 157.009 35.6349 158.849 35.6543ZM181.577 21.653C183.041 19.4283 185.585 18.3351 189.212 18.3733L189.162 23.1331C188.737 23.0486 188.35 23.0045 188.004 23.0008C186.057 22.9803 184.531 23.5376 183.426 24.6727C182.321 25.7811 181.758 27.4019 181.735 29.5351L181.628 39.8946L176.628 39.8419L176.85 18.483L181.61 18.5332L181.577 21.653ZM202.83 40.3981C200.617 40.3747 198.635 39.8872 196.885 38.9353C195.134 37.9835 193.775 36.6758 192.805 35.0121C191.836 33.3218 191.363 31.4234 191.384 29.3168C191.406 27.2103 191.919 25.3356 192.923 23.6927C193.927 22.0499 195.3 20.7709 197.043 19.8559C198.813 18.9412 200.818 18.4956 203.057 18.5192C205.164 18.5414 206.999 18.9875 208.564 19.8573C210.155 20.7275 211.342 21.9667 212.125 23.5751L208.262 25.7745C207.659 24.7814 206.894 24.04 205.965 23.5502C205.064 23.034 204.067 22.7701 202.973 22.7586C201.107 22.7389 199.554 23.3359 198.314 24.5496C197.075 25.7366 196.445 27.3434 196.424 29.3699C196.403 31.3965 196.986 33.0294 198.173 34.2686C199.387 35.4815 200.941 36.0979 202.834 36.1179C203.928 36.1294 204.93 35.8999 205.842 35.4295C206.78 34.9327 207.561 34.1942 208.185 33.2141L212.001 35.4944C211.158 37.0856 209.932 38.3128 208.323 39.1759C206.741 40.0126 204.91 40.42 202.83 40.3981ZM228.423 18.7866C231.116 18.815 233.268 19.6244 234.878 21.2148C236.488 22.8051 237.277 25.1469 237.245 28.2401L237.118 40.4794L232.118 40.4267L232.239 28.8274C232.258 26.9608 231.833 25.5562 230.962 24.6137C230.092 23.6445 228.844 23.1513 227.218 23.1341C225.378 23.1147 223.919 23.6594 222.84 24.7681C221.762 25.8501 221.213 27.4311 221.191 29.511L221.079 40.3104L216.079 40.2577L216.388 10.5793L221.387 10.632L221.275 21.4314C222.111 20.5602 223.131 19.9042 224.336 19.4635C225.567 18.9965 226.93 18.7708 228.423 18.7866Z" fill="#3B3C44"/>
</svg>