<svg width="24" height="24" viewBox="0 0 24 24" fill="none" xmlns="http://www.w3.org/2000/svg">
<path fill-rule="evenodd" clip-rule="evenodd" d="M15 7C15 8.65685 13.6569 10 12 10C10.3431 10 9 8.65685 9 7C9 5.34315 10.3431 4 12 4C13.6569 4 15 5.34315 15 7ZM17 7C17 9.76142 14.7614 12 12 12C9.23858 12 7 9.76142 7 7C7 4.23858 9.23858 2 12 2C14.7614 2 17 4.23858 17 7ZM8 14C5.23858 14 3 16.2386 3 19V20H5V19C5 17.3431 6.34315 16 8 16H16C17.6569 16 19 17.3431 19 19V20H21V19C21 16.2386 18.7614 14 16 14H8Z" stroke="none"/>
</svg>