<svg width="26" height="26" viewBox="0 0 26 26" fill="none" xmlns="http://www.w3.org/2000/svg">
<path d="M14.8872 11.1134C13.8861 10.1127 12.5286 9.5506 11.1132 9.5506C9.69776 9.5506 8.34027 10.1127 7.3392 11.1134L3.56398 14.8874C2.56289 15.8885 2.00049 17.2462 2.00049 18.662C2.00049 20.0777 2.56289 21.4355 3.56398 22.4366C4.56507 23.4377 5.92283 24.0001 7.33859 24.0001C8.75434 24.0001 10.1121 23.4377 11.1132 22.4366L13.0002 20.5496" stroke="#F59D33" stroke-width="3" stroke-linecap="round" stroke-linejoin="round"/>
<path d="M11.1128 14.8873C12.1139 15.888 13.4714 16.4501 14.8868 16.4501C16.3022 16.4501 17.6597 15.888 18.6608 14.8873L22.436 11.1133C23.4371 10.1122 23.9995 8.75446 23.9995 7.33871C23.9995 5.92296 23.4371 4.56519 22.436 3.5641C21.4349 2.56302 20.0771 2.00061 18.6614 2.00061C17.2456 2.00061 15.8879 2.56302 14.8868 3.5641L12.9998 5.4511" stroke="#F59D33" stroke-width="3" stroke-linecap="round" stroke-linejoin="round"/>
</svg>
