<svg width="18" height="23" viewBox="0 0 18 23" fill="none" xmlns="http://www.w3.org/2000/svg">
<path d="M1.28538 20.4444H16.7146C17.0404 20.4445 17.354 20.5675 17.592 20.7885C17.8301 21.0096 17.9748 21.3121 17.997 21.6351C18.0192 21.9581 17.9172 22.2774 17.7116 22.5286C17.5061 22.7797 17.2122 22.9439 16.8895 22.9881L16.7146 23H1.28538C0.95961 22.9999 0.646023 22.8769 0.407983 22.6559C0.169943 22.4349 0.0251966 22.1323 0.00299222 21.8093C-0.0192122 21.4863 0.0827805 21.167 0.288362 20.9159C0.493943 20.6647 0.787785 20.5005 1.11051 20.4564L1.28538 20.4444H16.7146H1.28538ZM8.82514 0.0119259L9 0C9.31071 1.30212e-05 9.6109 0.111836 9.84506 0.314788C10.0792 0.517741 10.2315 0.798094 10.2738 1.104L10.2858 1.27778V14.3759L14.1517 10.5357C14.3697 10.3191 14.6587 10.1876 14.9662 10.1651C15.2736 10.1425 15.579 10.2305 15.8266 10.413L15.9706 10.5357C16.1885 10.7524 16.3209 11.0396 16.3436 11.3452C16.3662 11.6507 16.2777 11.9541 16.094 12.2002L15.9706 12.3433L9.90861 18.3659C9.69091 18.5823 9.40229 18.7139 9.09523 18.7367C8.78817 18.7595 8.48307 18.6721 8.2354 18.4903L8.09139 18.3659L2.02941 12.3433C1.79936 12.1153 1.66469 11.8092 1.65248 11.4866C1.64027 11.1639 1.75143 10.8486 1.9636 10.6041C2.17578 10.3596 2.47324 10.204 2.79617 10.1685C3.11911 10.1331 3.44358 10.2204 3.70434 10.413L3.84835 10.5357L7.71423 14.3793V1.27778C7.71424 0.969003 7.82677 0.670677 8.03099 0.43797C8.23521 0.205263 8.51731 0.0539193 8.82514 0.0119259L9 0L8.82514 0.0119259Z" fill="#F59D33"/>
</svg>
