<svg width="112" height="23" viewBox="0 0 112 23" fill="none" xmlns="http://www.w3.org/2000/svg">
<path d="M14.0911 6.14178V18H9.43022V17.0245C8.72205 17.8193 7.63811 18.2168 6.17842 18.2168C5.13784 18.2168 4.17675 17.9711 3.29516 17.4797C2.42801 16.9739 1.73429 16.2513 1.214 15.3118C0.708169 14.3724 0.455252 13.2885 0.455252 12.06C0.455252 10.8316 0.708169 9.75488 1.214 8.82993C1.73429 7.89052 2.42801 7.17512 3.29516 6.68374C4.17675 6.17791 5.13784 5.92499 6.17842 5.92499C7.49359 5.92499 8.49803 6.26462 9.19175 6.94389V6.14178H14.0911ZM7.34906 14.4013C7.91271 14.4013 8.37519 14.199 8.7365 13.7943C9.09781 13.3752 9.27846 12.7971 9.27846 12.06C9.27846 11.323 9.09781 10.7521 8.7365 10.3474C8.37519 9.94277 7.91271 9.74043 7.34906 9.74043C6.78542 9.74043 6.32294 9.94277 5.96163 10.3474C5.60032 10.7521 5.41966 11.323 5.41966 12.06C5.41966 12.7971 5.60032 13.3752 5.96163 13.7943C6.32294 14.199 6.78542 14.4013 7.34906 14.4013ZM23.7424 5.92499C24.7829 5.92499 25.7368 6.17791 26.6039 6.68374C27.4855 7.17512 28.1793 7.89052 28.6851 8.82993C29.2054 9.75488 29.4655 10.8316 29.4655 12.06C29.4655 13.2885 29.2054 14.3724 28.6851 15.3118C28.1793 16.2513 27.4855 16.9739 26.6039 17.4797C25.7368 17.9711 24.7829 18.2168 23.7424 18.2168C22.2827 18.2168 21.1987 17.8193 20.4906 17.0245V18H15.8297V1.91444H20.729V6.94389C21.4227 6.26462 22.4272 5.92499 23.7424 5.92499ZM22.5717 14.4013C23.1354 14.4013 23.5978 14.199 23.9591 13.7943C24.3205 13.3752 24.5011 12.7971 24.5011 12.06C24.5011 11.323 24.3205 10.7521 23.9591 10.3474C23.5978 9.94277 23.1354 9.74043 22.5717 9.74043C22.0081 9.74043 21.5456 9.94277 21.1843 10.3474C20.823 10.7521 20.6423 11.323 20.6423 12.06C20.6423 12.7971 20.823 13.3752 21.1843 13.7943C21.5456 14.199 22.0081 14.4013 22.5717 14.4013ZM30.5754 6.14178H35.4747V18H30.5754V6.14178ZM33.0251 5.18792C32.1435 5.18792 31.4281 4.95668 30.8789 4.4942C30.3441 4.01727 30.0768 3.41749 30.0768 2.69487C30.0768 1.97225 30.3441 1.3797 30.8789 0.91722C31.4281 0.44029 32.1435 0.201824 33.0251 0.201824C33.9211 0.201824 34.6365 0.425837 35.1712 0.873863C35.706 1.32189 35.9734 1.89999 35.9734 2.60816C35.9734 3.35968 35.706 3.98114 35.1712 4.47252C34.6365 4.94945 33.9211 5.18792 33.0251 5.18792ZM45.3639 17.5881C44.6269 18.0072 43.6224 18.2168 42.3506 18.2168C40.6886 18.2168 39.4095 17.8193 38.5135 17.0245C37.6174 16.2151 37.1694 15.0083 37.1694 13.4041V3.4753H42.0688V6.79214H44.4968V10.3691H42.0688V13.3608C42.0688 13.7221 42.1627 14.0039 42.3506 14.2062C42.5385 14.4086 42.7842 14.5097 43.0877 14.5097C43.5068 14.5097 43.8753 14.4013 44.1933 14.1846L45.3639 17.5881ZM51.1222 18.2168C49.5613 18.2168 48.3401 17.8266 47.4585 17.0461C46.5913 16.2513 46.1578 15.1095 46.1578 13.6209V1.91444H51.0571V13.3608C51.0571 13.7365 51.1511 14.0256 51.3389 14.2279C51.5268 14.4158 51.7942 14.5097 52.1411 14.5097C52.3 14.5097 52.459 14.4881 52.618 14.4447C52.7914 14.4013 52.9287 14.3508 53.0299 14.293L53.225 17.9133C52.5313 18.1156 51.8303 18.2168 51.1222 18.2168ZM68.2861 6.14178L66.4 15.6153C65.9375 17.9711 65.0198 19.6909 63.6468 20.7749C62.2883 21.8733 60.5034 22.4224 58.2922 22.4224C55.8642 22.4224 53.9059 21.9311 52.4173 20.9483L54.4984 17.6098C54.9754 17.9711 55.5607 18.2529 56.2544 18.4553C56.9626 18.672 57.6708 18.7804 58.3789 18.7804C59.2894 18.7804 59.9687 18.5853 60.4167 18.1951C60.8647 17.8193 61.161 17.2485 61.3055 16.4825L61.3489 16.2657C60.872 16.627 60.3589 16.9016 59.8097 17.0895C59.275 17.2629 58.7402 17.3496 58.2055 17.3496C56.9337 17.3496 55.9148 17.0028 55.1488 16.3091C54.3828 15.6153 53.9998 14.6181 53.9998 13.3174C53.9998 12.826 54.0504 12.3274 54.1516 11.8216L55.2789 6.14178H60.1782L59.1594 11.2363C59.1015 11.5831 59.0726 11.8288 59.0726 11.9733C59.0726 12.8116 59.4701 13.2307 60.265 13.2307C61.3923 13.2307 62.1076 12.4792 62.4111 10.9761L63.3867 6.14178H68.2861ZM71.0647 18.2168C70.2409 18.2168 69.5544 17.9566 69.0052 17.4364C68.4704 16.9016 68.2031 16.2224 68.2031 15.3986C68.2031 14.5748 68.4704 13.91 69.0052 13.4041C69.5544 12.8838 70.2409 12.6237 71.0647 12.6237C71.8884 12.6237 72.5677 12.8838 73.1024 13.4041C73.6516 13.91 73.9262 14.5748 73.9262 15.3986C73.9262 16.2224 73.6516 16.9016 73.1024 17.4364C72.5677 17.9566 71.8884 18.2168 71.0647 18.2168ZM81.269 18.2168C79.9539 18.2168 78.7688 17.9566 77.7137 17.4364C76.6732 16.9016 75.8566 16.1718 75.2641 15.2468C74.6715 14.3074 74.3752 13.2451 74.3752 12.06C74.3752 10.8749 74.6715 9.81992 75.2641 8.89497C75.8566 7.95556 76.6732 7.22571 77.7137 6.70542C78.7688 6.18513 79.9539 5.92499 81.269 5.92499C82.5987 5.92499 83.7838 6.18513 84.8243 6.70542C85.8794 7.22571 86.6959 7.95556 87.274 8.89497C87.8666 9.81992 88.1629 10.8749 88.1629 12.06C88.1629 13.2451 87.8666 14.3074 87.274 15.2468C86.6959 16.1718 85.8794 16.9016 84.8243 17.4364C83.7838 17.9566 82.5987 18.2168 81.269 18.2168ZM81.269 14.4013C81.8327 14.4013 82.2952 14.199 82.6565 13.7943C83.0178 13.3752 83.1984 12.7971 83.1984 12.06C83.1984 11.323 83.0178 10.7521 82.6565 10.3474C82.2952 9.94277 81.8327 9.74043 81.269 9.74043C80.7054 9.74043 80.2429 9.94277 79.8816 10.3474C79.5203 10.7521 79.3396 11.323 79.3396 12.06C79.3396 12.7971 79.5203 13.3752 79.8816 13.7943C80.2429 14.199 80.7054 14.4013 81.269 14.4013ZM93.9236 7.42082C94.7908 6.4236 96.0698 5.92499 97.7607 5.92499V10.2607C97.3705 10.2029 97.0092 10.174 96.6768 10.174C95.0003 10.174 94.1621 11.0267 94.1621 12.7321V18H89.2627V6.14178H93.9236V7.42082ZM111.856 6.14178V15.637C111.856 17.8916 111.227 19.5825 109.97 20.7098C108.727 21.8516 106.949 22.4224 104.637 22.4224C103.451 22.4224 102.346 22.2924 101.32 22.0322C100.294 21.7865 99.4193 21.4252 98.6966 20.9483L100.344 17.6098C100.807 17.9566 101.392 18.2385 102.1 18.4553C102.808 18.672 103.488 18.7804 104.138 18.7804C105.121 18.7804 105.836 18.5709 106.284 18.1518C106.732 17.7326 106.956 17.1184 106.956 16.3091V16.0923C106.219 16.9305 105.128 17.3496 103.683 17.3496C102.671 17.3496 101.724 17.1184 100.843 16.6559C99.9757 16.179 99.282 15.507 98.7617 14.6398C98.2414 13.7582 97.9812 12.7538 97.9812 11.6265C97.9812 10.4992 98.2414 9.50197 98.7617 8.63482C99.282 7.76768 99.9757 7.10286 100.843 6.64038C101.724 6.16345 102.671 5.92499 103.683 5.92499C105.301 5.92499 106.472 6.44528 107.195 7.48585V6.14178H111.856ZM104.983 13.5342C105.562 13.5342 106.038 13.3608 106.414 13.0139C106.804 12.6526 107 12.1901 107 11.6265C107 11.0628 106.804 10.6076 106.414 10.2607C106.038 9.91386 105.562 9.74043 104.983 9.74043C104.391 9.74043 103.9 9.91386 103.509 10.2607C103.134 10.6076 102.946 11.0628 102.946 11.6265C102.946 12.1901 103.141 12.6526 103.531 13.0139C103.921 13.3608 104.405 13.5342 104.983 13.5342Z" fill="#F59D33" fill-opacity="0.3"/>
</svg>
