<svg width="22" height="28" viewBox="0 0 22 28" fill="none" xmlns="http://www.w3.org/2000/svg">
    <path fill-rule="evenodd" clip-rule="evenodd" d="M10.7692 21.5385C16.7169 21.5385 21.5385 16.7169 21.5385 10.7692C21.5385 4.82155 16.7169 0 10.7692 0C4.82155 0 0 4.82155 0 10.7692C0 16.7169 4.82155 21.5385 10.7692 21.5385ZM6.46135 14.359C6.46135 15.0769 7.1793 15.0769 7.1793 15.0769H14.3588C14.3588 15.0769 15.0767 15.0769 15.0767 14.359C15.0767 13.641 14.3588 11.4872 10.769 11.4872C7.1793 11.4872 6.46135 13.641 6.46135 14.359ZM12.292 10.1384C11.8881 10.5423 11.3403 10.7692 10.769 10.7692C10.1978 10.7692 9.64997 10.5423 9.24604 10.1384C8.84212 9.73446 8.6152 9.18662 8.6152 8.61538C8.6152 8.04415 8.84212 7.49631 9.24604 7.09239C9.64997 6.68846 10.1978 6.46154 10.769 6.46154C11.3403 6.46154 11.8881 6.68846 12.292 7.09239C12.696 7.49631 12.9229 8.04415 12.9229 8.61538C12.9229 9.18662 12.696 9.73446 12.292 10.1384Z" fill="white"/>
    <path d="M10.7689 28L13.8778 19.9231H7.66013L10.7689 28Z" fill="white"/>
</svg>